<?xml version="1.0" encoding="utf-8"?>
<!-- Generator: Adobe Illustrator 26.2.1, SVG Export Plug-In . SVG Version: 6.00 Build 0)  -->
<svg version="1.1" id="Camada_1" xmlns="http://www.w3.org/2000/svg" xmlns:xlink="http://www.w3.org/1999/xlink" x="0px" y="0px"
	 viewBox="0 0 140 106.6" style="enable-background:new 0 0 140 106.6;" xml:space="preserve">
<style type="text/css">
	.st0{fill:#ECECEC;}
	.st1{fill:#30296B;}
	.st2{fill:#FFFFFF;}
	.st3{fill:#F4F3F7;}
</style>
<g>
	<path class="st0" d="M69.9,103.8c-17.9,0-35.8,0-53.6,0c-7.1,0-12.4-4.3-13.8-11c-0.2-0.8-0.2-1.6-0.2-2.5c0-24.9,0-49.7,0-74.6
		c0-7.5,5.9-13.4,13.4-13.4c36.2,0,72.4,0,108.6,0c7.4,0,13.4,5.8,13.5,13.2c0.1,25,0.1,50,0,75c0,7.5-6.1,13.2-13.9,13.3
		c-10.4,0-20.7,0-31.1,0C85.1,103.8,77.5,103.8,69.9,103.8z M70,4.2c-17.9,0-35.9,0-53.8,0C9,4.2,4.1,9.1,4.1,16.3
		c0,24.5,0,49,0,73.5C4.1,97,9,102,16.3,102c35.8,0,71.7,0,107.5,0c7.1,0,12.1-5,12.1-12.1c0-24.5,0-49,0-73.5
		c0-7.3-4.9-12.2-12.2-12.2C105.8,4.2,87.9,4.2,70,4.2z"/>
	<path class="st1" d="M123.7,4.2c-17.9,0-35.8,0-53.6,0c-17.9,0-35.9,0-53.8,0C9,4.2,4.1,9.1,4.1,16.3v73.4C4.1,97,9,102,16.3,102
		h107.5c7.1,0,12.1-5,12.1-12.1c0-24.5,0-49,0-73.5C135.9,9.1,130.9,4.2,123.7,4.2z M132.2,63c-20.7-0.1-41.5,0-62.2,0
		c-20.8,0-41.6,0-62.4,0c-1.6,0-2-0.4-2-2c0.1-14.9,0-29.9,0-44.8c0-6,4.3-10.4,10.3-10.4c36,0,72,0,108.1,0c6,0,10.3,4.3,10.3,10.3
		c0,14.9,0,29.9,0.1,44.8C134.4,62.7,133.8,63,132.2,63z"/>
	<path class="st2" d="M134.4,60.9c0,1.8-0.5,2-2.1,2c-20.7-0.1-41.5,0-62.2,0c-20.8,0-41.6,0-62.4,0c-1.6,0-2-0.4-2-2
		c0.1-14.9,0-29.9,0-44.8c0-6,4.3-10.4,10.3-10.4c36,0,72,0,108.1,0c6,0,10.3,4.3,10.3,10.3C134.3,31,134.3,46,134.4,60.9z"/>
	<path class="st1" d="M44,35.9c2.6,1,4.5,2.3,5,4.9c0.3,1.8-0.1,3.5-0.8,5c-2.4,5.5-6.7,8.9-12.6,9.6c-8.5,1-17.2,0.3-25.7,0.4
		c-0.3,0-0.9,0.2-0.9-0.4c0-0.5,0.1-1.1,0.8-1.1c4.4-0.1,5.7-3.4,6.9-6.8c2.7-7.3,5.4-14.5,8.1-21.7c0.3-0.8,0.6-1.6,0.8-2.3
		c0.5-2.1,0-3-2.1-3.7c-0.4-0.1-1.1,0.1-1-0.6c0-0.5,0.3-0.9,1-0.9c8.4,0.2,16.9-0.6,25.3,0.5c4.9,0.7,6.6,3.9,4.9,8.6
		C52.3,31.6,49.4,34.1,44,35.9z M37.3,42.8c0-3.7-1.6-5.4-4.4-5.5c-0.6,0-1,0-1.2,0.6c-1.6,4.3-3.2,8.5-4.6,12.8
		c-0.8,2.4,0.6,3.5,3,2.7c0.6-0.2,1.3-0.5,1.8-1C35.3,49.7,36.9,46.2,37.3,42.8z M32.9,35c1,0.2,1.6,0.1,2.2-0.1c4-1,7.1-5,7.8-10.1
		c0.3-2.4-1-4.1-3.4-4.4c-0.7-0.1-1.2,0-1.4,0.8C36.4,25.8,34.6,30.3,32.9,35z"/>
	<path class="st1" d="M79.1,43.2c2-1.6,3.6-3.4,4.7-5.6c0.5-1.1,0.7-2.1-0.5-3.1c-1-0.8-0.3-1.4,0.5-1.5c3.1-0.1,6.2,0,9.3,0
		c0.3,0,0.6,0,0.5,0.3c0,0.4-0.1,0.8-0.5,1c-5.2,1.7-8.2,6.3-12,9.7c-0.8,0.7-1.1,1.4-0.4,2.4c0.3,0.4,0.4,0.8,0.6,1.2
		c1.5,2.4,2.6,2.8,5.2,1.6c0.5-0.2,1-0.8,1.5-0.1c0.4,0.7-0.3,0.9-0.7,1.1c-2.9,2.5-5.7,5.2-9.7,6.1c-2.9,0.6-5.2-0.2-6.8-2.7
		c-0.6-1-1.1-1-2-0.5c-3.6,2.1-7.5,3.4-11.8,3.3c-5.6-0.1-8.3-4-6.4-9.3c1.6-4.6,5.1-7.5,9.1-9.8c1.7-1,3.9-1.3,5.2-2.6
		c1.4-1.3,0.7-3.7,1.2-5.5c2.1-7.1,8.8-12.1,16.1-11.9c2.2,0.1,4.4,0.5,5.5,2.7c1.2,2.2,0.4,4.3-0.9,6.3c-2.2,3.4-5.6,5.1-9.2,6.5
		c-1.4,0.5-1.7,1.2-1.3,2.5C77.1,37.9,77.7,40.6,79.1,43.2z M65.6,37.3c-3.3,1.9-4.8,4.7-4.9,8.1C60.6,49.6,64,52,68,50.7
		c0.8-0.2,1-0.6,0.6-1.3C66.9,45.6,66,41.6,65.6,37.3z M75.6,27.4c0,0.9,0,1.8,0,2.7c0,0.7,0.2,1,1,0.7c3-1.2,5.4-5.4,4.8-8.5
		c-0.2-1.2-0.5-2.4-1.9-2.6c-1.3-0.2-2.2,0.8-2.8,1.9C75.6,23.3,75.5,25.3,75.6,27.4z"/>
	<path class="st1" d="M103.2,56.6c-2.8,0.2-5.8-0.8-8.7-2c-1.9-0.8-3.4-0.5-4.4,1.2c-0.4,0.7-1,1-1.6,0.7c-0.7-0.4,0-1,0.2-1.5
		c1.3-3.6,2.6-7.1,4-10.7c0.2-0.6,0.2-1.6,1.2-1.4c1,0.2,0.4,1.1,0.4,1.6c-0.1,4.4,1.5,7.5,4.8,8.9c3.9,1.7,9.2,0.7,11.9-2.1
		c2.2-2.3,2.2-4.5-0.2-6.8c-1.7-1.6-3.8-2.7-5.9-3.8c-1.3-0.7-2.6-1.4-3.7-2.3c-3.3-2.4-4.1-5-2.8-9c2.3-6.9,9.8-12,17.7-12.2
		c3.2-0.1,6.2,0.6,9,2c1.8,0.9,3.2,0.7,4.1-1.2c0.3-0.6,0.7-1,1.3-0.7c0.9,0.4,0.1,1,0,1.4c-1.1,3.2-2.3,6.3-3.5,9.4
		c-0.2,0.6-0.3,1.4-1.2,1.2c-1.1-0.2-0.3-1-0.3-1.5c0-2.2-0.5-4.1-2.1-5.7c-3.4-3.5-10.4-3.2-13.5,0.6c-1.6,1.9-1.4,3.6,0.5,5.3
		c1.2,1.1,2.7,1.8,4.2,2.6c1.6,0.8,3.2,1.6,4.7,2.5c3.9,2.3,5.1,5.5,3.8,9.9C120.7,51.1,112.8,56.6,103.2,56.6z"/>
	<g>
		<path class="st3" d="M85.4,80.1c-0.4,4-2.2,7.5-6.3,9.5c-2.3,1.1-4.7,1.1-6.9-0.4c-2.1-1.6-2.5-3.9-2.1-6.3c0.7-4.5,4-8.2,8.2-9
			C82.2,73.1,85.4,75.8,85.4,80.1z M82.4,79.6c0-3.4-1.1-5-3.3-4.9c-1.4,0-2.5,0.7-3.3,1.9c-1.9,2.6-2.7,5.6-2.9,8.7
			c-0.1,1.6,0.3,3.3,2.1,3.9c1.9,0.6,3.4-0.2,4.5-1.6C81.5,85.1,82.2,82.1,82.4,79.6z"/>
		<path class="st3" d="M87,84c0.1-4,2.8-8.1,6.4-9.6c5.2-2.1,9.3,0.9,8.8,6.4c-0.4,4.5-4.1,8.8-8.2,9.3C89.7,90.8,86.9,88.4,87,84z
			 M99.3,79.4c0-1.9,0.2-3.8-2.1-4.6c-2-0.6-3.7,0.3-5.1,2.7C90.8,79.8,90,82.3,90,85c0,1.8,0.1,3.5,2.1,4.3
			c1.7,0.6,3.6-0.2,4.9-2.1C98.4,84.8,99.3,82.2,99.3,79.4z"/>
		<path class="st3" d="M19.6,73.7c3.3,0,5.7,2.1,6,5.4c0.5,5.1-3.8,10.6-8.6,11.1c-4.1,0.4-6.7-2-6.7-6.1
			C10.2,78.8,14.8,73.8,19.6,73.7z M13.2,85.1c0,2.5,0.7,3.7,2.2,4.2c1.7,0.5,3.5-0.3,4.7-2.1c1.7-2.6,2.5-5.4,2.5-8.5
			c0-1.6-0.2-3.2-2.1-3.9c-1.7-0.6-3.4,0.1-4.6,1.9C14.2,79.2,13.3,82,13.2,85.1z"/>
		<path class="st3" d="M129.4,73.8c0,1.6-0.2,3.2-0.8,5c-0.4-1-0.6-1.8-0.9-2.4c-0.7-1.4-2.7-2.1-4.1-1.5c-1.3,0.5-1.7,1.5-1.5,2.8
			c0.1,0.8,0.7,1.3,1.3,1.8c0.9,0.8,1.9,1.5,2.8,2.3c1.9,1.6,2.4,3.5,1.7,5.4c-0.7,2-2.6,3.1-5,3.1c-0.6,0-1.3-0.1-1.9-0.2
			c-1.2-0.4-2.4-0.9-3.8,0.6c0.4-2.1,0.6-3.7,0.9-5.2c0.1,0,0.2,0,0.4-0.1c0.2,0.5,0.4,1.1,0.6,1.6c0.6,1.5,1.7,2.4,3.3,2.4
			c1.3,0,2.4-0.5,3-1.7c0.7-1.5,0.2-2.8-1.1-3.9c-0.9-0.8-1.8-1.6-2.7-2.4c-2.1-1.9-2.6-3.6-1.6-5.4c0.9-1.7,3.3-2.6,5.7-2.1
			C126.8,74.2,128.1,75.1,129.4,73.8z"/>
		<path class="st3" d="M69,78.3c-0.1-2-0.7-3.3-2.9-3.2c-0.7,0-1.1,0.2-1.3,1c-0.8,3.7-1.7,7.4-2.5,11.1c-0.3,1.4,0.3,2.1,1.6,2.5
			c-2.4,0-4.7,0-7.1,0c1.8-0.6,2.4-1.9,2.8-3.5c0.7-3.2,1.4-6.4,2.2-9.6c0.3-1.2,0-1.5-1.2-1.5c-2,0.1-3.1,1.3-4,3.2
			c-0.4-1.5,0.2-2.5,0.3-3.6c0-0.4,0.3-0.6,0.8-0.6c3.9,0,7.7,0,11.6,0c0.5,0,0.9,0.1,0.7,0.8C69.7,76,69.8,77.3,69,78.3z"/>
		<path class="st3" d="M112.1,74.3c-1.6,0.6-2,1.8-2.3,3.3c-0.6,3-1.4,5.9-2.1,8.9c-0.5,2,0,2.5,2.1,2.5c2.6,0,4.9-0.6,6.4-3.2
			c0.2,3.4-0.5,4.2-3.4,4.2c-3.3,0-6.7,0-10,0c1.3-0.8,1.7-1.9,2-3.2c0.7-3,1.4-6,2.1-9c0.4-1.5,0.5-2.8-1.5-3.4
			C107.6,74.3,109.9,74.3,112.1,74.3z"/>
		<path class="st3" d="M48.2,86.1c-0.3,1.1-0.7,2.1-1,3.2c-0.1,0.4-0.4,0.6-0.8,0.6c-4,0-8.1,0-12.2-0.2c1.6-0.5,1.9-1.9,2.2-3.2
			c0.7-3,1.3-6.1,2.1-9c0.4-1.6,0.3-2.6-1.5-3.2c2.3,0,4.5,0,6.8,0c-2,0.6-2.2,2.3-2.6,4c-0.6,2.8-1.3,5.7-2,8.5
			c-0.4,1.5,0.3,2.1,1.7,2.2C43.8,89,46.3,88.5,48.2,86.1z"/>
		<path class="st3" d="M32.4,89.8c-2.1,0-4.3,0-6.4,0c1.3-0.7,1.8-2,2.1-3.3c0.7-2.9,1.3-5.8,2.1-8.7c0.5-1.7,0.4-2.9-1.5-3.5
			c2.3,0,4.6,0,6.9,0c-2,0.7-2.2,2.4-2.6,4c-0.6,2.8-1.3,5.5-2,8.3C30.5,88.6,30.7,88.9,32.4,89.8z"/>
	</g>
</g>
</svg>
