<?xml version="1.0" encoding="utf-8"?>
<!-- Generator: Adobe Illustrator 25.2.3, SVG Export Plug-In . SVG Version: 6.00 Build 0)  -->
<svg version="1.1" id="Camada_1" xmlns="http://www.w3.org/2000/svg" xmlns:xlink="http://www.w3.org/1999/xlink" x="0px" y="0px"
	 viewBox="0 0 134.3 135.4" style="enable-background:new 0 0 134.3 135.4;" xml:space="preserve">
<style type="text/css">
	.st0{fill:#216D98;}
	.st1{fill:#A98340;}
	.st2{fill:#CAB285;}
	.st3{fill:#BE9B56;}
	.st4{fill:#88ADC1;}
	.st5{fill:#A3BECF;}
	.st6{fill:#E6E6E8;}
	.st7{fill:#DE9200;}
	.st8{fill:#47312E;}
	.st9{fill:#0062A3;}
	.st10{fill:#FFD912;}
	.st11{fill:#1E5DA7;}
	.st12{fill:#D2D4D9;}
	.st13{fill:#B5B5B5;}
	.st14{fill:#D66200;}
	.st15{fill:#C5C0B5;}
	.st16{fill:#1D3696;}
	.st17{fill:#E6A166;}
</style>
<g id="layer_x5F_2">
</g>
<path class="st0" d="M134.3,91.7h-17.5v-4.2c0-4.6-3.8-8.4-8.4-8.4H87h-8.2l-2,3.3H87l0,0h21.4c2.8,0,5.2,2.3,5.2,5.2v4.2h-5.2
	c-4.5,0-8.1,3.5-8.4,7.9l0,0v0.5v0.5v12.2c0,4.5,3.5,8.1,7.9,8.4l0,0h0.5l0,0h0.5l0,0c4.4-0.2,7.9-3.9,7.9-8.4v-12.2v-0.9V95h17.5
	V91.7z M103.2,112.8v-12.2l0,0v-0.5c0-2.8,2.3-5.2,5.2-5.2h5.2v5.2v12.6c0,2.8-2.3,5.2-5.2,5.2C105.6,117.9,103.2,115.6,103.2,112.8
	z"/>
<g>
	<g>
		<path class="st0" d="M76.3,107.3c0,3.8-3.1,6.9-6.9,6.9l-15.4,0v2.7h15.4c5.3,0,9.7-4.3,9.7-9.7V81.8h-2.9L76.3,107.3z"/>
		<path class="st0" d="M79.1,107.3c0,5.3-4.3,9.7-9.7,9.7H54v-2.7l15.4-0.1c3.8,0,6.9-3.1,6.9-6.9l-0.1-37.5l2.9,1.7
			C79.1,71.5,79.1,107.3,79.1,107.3z"/>
	</g>
</g>
<polygon class="st1" points="5.4,67.5 35.5,94.9 43.8,90.3 61.2,104.3 85.3,88.1 90.4,90.6 123.8,67.5 "/>
<polygon class="st2" points="123.8,67.5 5.4,67.5 21.3,57.6 113.2,56.9 "/>
<polygon class="st3" points="43.8,90.3 97,67.5 5.4,67.5 35.5,94.9 "/>
<rect x="112.7" y="105.3" class="st4" width="4.8" height="1.2"/>
<rect x="99.3" y="101" class="st4" width="4.8" height="1.2"/>
<rect x="112.7" y="86.4" class="st4" width="4.8" height="1.2"/>
<rect x="123" y="90.8" class="st4" width="1.2" height="4.8"/>
<rect x="128.8" y="90.8" class="st4" width="1.2" height="4.8"/>
<path class="st0" d="M102.9,105.6H95v-1.8c0-2-1.7-3.6-3.7-3.6h-9.4h-3.6l-0.9,1.4h4.5l0,0h9.4c1.3,0,2.3,1,2.3,2.2v1.8h-2.3
	c-2,0-3.6,1.5-3.7,3.4l0,0v0.2v0.2v5.3c0,1.9,1.6,3.5,3.5,3.6l0,0h0.2l0,0h0.2l0,0c1.9-0.1,3.5-1.7,3.5-3.6v-5.3V109v-2h7.9V105.6z
	 M89,114.7v-5.3l0,0v-0.2c0-1.2,1-2.2,2.3-2.2h2.3v2.2v5.5c0,1.2-1,2.2-2.3,2.2C90,116.9,89,115.9,89,114.7z"/>
<rect x="93" y="111.5" class="st4" width="2.6" height="0.6"/>
<rect x="86.9" y="111.5" class="st4" width="2.6" height="0.6"/>
<rect x="93" y="103.3" class="st4" width="2.6" height="0.6"/>
<rect x="84.9" y="99.6" class="st4" width="0.6" height="2.6"/>
<rect x="91" y="116.5" class="st4" width="0.6" height="2.2"/>
<g>
	<path class="st0" d="M47.1,123.8c0-3.8,3.1-6.9,6.9-6.9l15.4-0.1v-2.7H53.9c-5.3,0-9.7,4.3-9.7,9.7v11.4H47L47.1,123.8z"/>
</g>
<path class="st5" d="M19.7,29.4c0.2,0,0.5-0.1,0.6-0.2c0.1,0.1,0.3,0.2,0.4,0.2c0.2,0,0.3-0.1,0.4-0.2c0,0.2,0.2,0.4,0.5,0.4
	s0.5-0.2,0.5-0.5s-0.2-0.5-0.5-0.5c0,0,0,0-0.1,0c0.3-0.2,0.4-0.5,0.4-0.8c0-0.4-0.3-0.8-0.7-0.9c-0.1-0.5-0.5-0.8-0.9-0.8
	c-0.2,0-0.4,0.1-0.6,0.2c-0.2-0.2-0.5-0.4-0.8-0.4l0,0l0,0c0-0.3-0.3-0.6-0.6-0.6c-0.3,0-0.6,0.3-0.6,0.6c0,0.3,0.2,0.5,0.4,0.6
	C18,26.6,18,26.7,18,26.9c0,0.5,0.4,0.9,0.9,1c-0.1,0.2-0.2,0.4-0.2,0.6C18.8,29,19.2,29.4,19.7,29.4z"/>
<path class="st5" d="M17.2,24.9c0.4,0,0.9-0.2,1.2-0.4c0.2,0.2,0.5,0.3,0.8,0.3s0.6-0.1,0.8-0.3c0.1,0.4,0.4,0.8,0.9,0.8
	s0.9-0.4,0.9-0.9s-0.4-0.9-0.9-0.9h-0.1c0.5-0.3,0.8-0.9,0.8-1.5c0-0.8-0.6-1.5-1.3-1.7c-0.1-0.8-0.9-1.5-1.7-1.5
	c-0.4,0-0.7,0.1-1,0.3c-0.3-0.4-0.8-0.7-1.4-0.7c0,0,0,0-0.1,0l0,0c0-0.6-0.5-1.2-1.2-1.2c-0.6,0-1.2,0.5-1.2,1.2
	c0,0.5,0.3,0.9,0.8,1.1c-0.1,0.2-0.1,0.5-0.1,0.7c0,0.9,0.7,1.7,1.6,1.8c-0.3,0.3-0.4,0.7-0.4,1.2C15.5,24.1,16.3,24.9,17.2,24.9z"
	/>
<path class="st6" d="M111.6,22.2c0.3,0,0.6-0.1,0.9-0.3c0.2,0.1,0.4,0.2,0.6,0.2s0.4-0.1,0.6-0.2c0,0.3,0.3,0.6,0.6,0.6
	c0.4,0,0.7-0.3,0.7-0.7c0-0.4-0.3-0.7-0.7-0.7c0,0,0,0-0.1,0c0.4-0.2,0.6-0.6,0.6-1.1c0-0.6-0.4-1.1-1-1.3c-0.1-0.6-0.6-1.1-1.3-1.1
	c-0.3,0-0.6,0.1-0.8,0.2c-0.2-0.3-0.6-0.5-1.1-0.5c0,0,0,0-0.1,0l0,0c0-0.5-0.4-0.9-0.9-0.9s-0.9,0.4-0.9,0.9c0,0.4,0.2,0.7,0.6,0.8
	c-0.1,0.2-0.1,0.3-0.1,0.5c0,0.7,0.5,1.2,1.2,1.3c-0.2,0.2-0.3,0.5-0.3,0.9C110.3,21.6,110.8,22.2,111.6,22.2z"/>
<polygon class="st5" points="24.2,60 24,56.9 23.9,54.2 23.7,51.4 23.6,48.6 23.4,45.5 23.2,42.7 23.1,39.8 22.9,36.9 22.7,34.1 
	23.3,34.1 23.3,32.3 22.6,32.3 22.6,30.8 21.4,30.8 20.3,30.8 20.2,32.3 19.6,32.3 19.6,34.1 20.1,34.1 20,36.9 19.8,39.8 
	19.7,42.7 19.5,45.5 19.3,48.6 19.2,51.4 19,54.2 18.9,56.9 18.7,60 18.6,62.7 24.3,62.7 "/>
<g>
	<g>
		<path class="st1" d="M34.7,34.4c0.1,0,0.2,0,0.3-0.1c0,0.1,0.1,0.3,0.3,0.3s0.3-0.1,0.3-0.3S35.5,34,35.3,34l0,0
			c0.2-0.1,0.3-0.3,0.3-0.5c0-0.3-0.2-0.5-0.4-0.6c0-0.3-0.3-0.5-0.6-0.5c-0.1,0-0.2,0-0.3,0.1c-0.1-0.1-0.3-0.2-0.5-0.2l0,0l0,0
			c0-0.2-0.2-0.4-0.4-0.4S33,32.1,33,32.3s0.1,0.3,0.3,0.4c0,0.1,0,0.2,0,0.2c0,0.3,0.2,0.6,0.5,0.6c-0.1,0.1-0.1,0.2-0.1,0.4
			c0,0.3,0.3,0.6,0.6,0.6C34.5,34.5,34.6,34.4,34.7,34.4C34.5,34.3,34.6,34.4,34.7,34.4z"/>
		<polygon class="st1" points="37.2,46.2 37.1,44 37,41.8 36.8,39.7 36.7,37.5 37.1,37.5 37.1,36.1 36.6,36.1 36.6,35 35.7,35 
			34.9,35 34.8,36.1 34.3,36.1 34.3,37.5 34.7,37.5 34.6,39.7 34.5,41.8 34.4,44 34.2,46.2 34.1,62.6 35.5,62.6 37.7,62.6 		"/>
	</g>
</g>
<g>
	<g>
		<g>
			
				<rect x="106.3" y="29.1" transform="matrix(0.5858 -0.8104 0.8104 0.5858 18.3687 99.4697)" class="st5" width="0.5" height="5.4"/>
			<rect x="103.8" y="34.7" transform="matrix(0.81 -0.5864 0.5864 0.81 -0.2626 69.0845)" class="st5" width="5.4" height="0.5"/>
		</g>
		<g>
			
				<rect x="106.3" y="35.4" transform="matrix(0.5859 -0.8104 0.8104 0.5859 13.27 102.0798)" class="st5" width="0.5" height="5.4"/>
			<rect x="103.8" y="41" transform="matrix(0.811 -0.585 0.585 0.811 -4.0063 70.0947)" class="st5" width="5.4" height="0.5"/>
		</g>
		<g>
			
				<rect x="106.3" y="41.7" transform="matrix(0.5857 -0.8106 0.8106 0.5857 8.1908 104.7253)" class="st5" width="0.5" height="5.4"/>
			
				<rect x="103.8" y="47.3" transform="matrix(0.8096 -0.587 0.587 0.8096 -7.6291 71.5687)" class="st5" width="5.4" height="0.5"/>
		</g>
		<g>
			<polygon class="st5" points="108.5,52.5 104.2,49.3 104.5,48.9 108.8,52.1 			"/>
			<polygon class="st5" points="104.4,56.9 104.1,56.5 108.5,52.1 108.8,52.4 			"/>
		</g>
	</g>
	<g>
		<g>
			<polygon class="st5" points="104.4,33.6 104.1,33.2 108.5,30.1 108.8,30.4 			"/>
			<polygon class="st5" points="108.5,36.7 104.1,33.6 104.4,33.2 108.8,36.3 			"/>
		</g>
		<g>
			
				<rect x="103.8" y="37.9" transform="matrix(0.8107 -0.5855 0.5855 0.8107 -2.1525 69.5813)" class="st5" width="5.4" height="0.5"/>
			
				<rect x="106.2" y="38.6" transform="matrix(0.5858 -0.8105 0.8105 0.5858 10.653 103.4062)" class="st5" width="0.5" height="5.4"/>
		</g>
		<g>
			
				<rect x="103.8" y="44.2" transform="matrix(0.8109 -0.5851 0.5851 0.8109 -5.8517 70.7222)" class="st5" width="5.4" height="0.5"/>
			
				<rect x="106.2" y="44.9" transform="matrix(0.5857 -0.8105 0.8105 0.5857 5.5537 106.025)" class="st5" width="0.5" height="5.4"/>
		</g>
		<g>
			
				<rect x="103.8" y="50.4" transform="matrix(0.8109 -0.5851 0.5851 0.8109 -9.4991 71.8668)" class="st5" width="5.4" height="0.5"/>
			
				<rect x="106.3" y="51.3" transform="matrix(0.7071 -0.7071 0.7071 0.7071 -7.2784 91.2516)" class="st5" width="0.5" height="6.3"/>
		</g>
	</g>
	<rect x="108.3" y="29.8" class="st5" width="0.6" height="27"/>
	<rect x="104" y="29.6" class="st5" width="4.9" height="0.7"/>
	<rect x="104" y="29.8" class="st5" width="0.6" height="27"/>
	<rect x="105.8" y="26.7" class="st5" width="1.4" height="3.3"/>
	<rect x="105.2" y="25.5" class="st5" width="2.5" height="1.8"/>
</g>
<path class="st5" d="M99.2,32.7v-1.3c0-0.8-0.6-1.4-1.4-1.4s-1.4,0.6-1.4,1.4v1.3h-0.2H96v-1.3c0-0.8-0.6-1.4-1.4-1.4
	s-1.4,0.6-1.4,1.4v1.3h-1.3v9.5h-2.2V24.9v-0.3v-0.1h-1.2V23h0.3v-1.3h-1.7V23h0.4v1.5h-1.2v0.1v0.3v17.4h-0.9l-0.1,0.1l-3,3
	l-1.2,1.2V45h-1v-5.9h1.2v0.7h0.4v-8.3h-0.4v0.7h-1.2v0.5h1.2v0.6h-1.2v0.5h1.2v0.6h-1.2v0.5h1.2v0.6h-1.2V36h1.2v0.6h-1.2v0.5h1.2
	v0.6h-1.2V38h1.2v0.6h-1.2v0.3l0,0v-4.7v-2v-1.7h-1.8V28h-1.2v-2.3v-1.1v-0.3h-12h-4.4c-1.3,0-2.4,1.1-2.4,2.4v2.6h-4.1
	c-1.3,0-2.4,1.1-2.4,2.4v3.4h-0.3v1.1h-1V39c-2.2,0.8-3.8,2.9-3.8,5.4v0.1V46v2.5v1.6v3.2H39v2h7.6l13.3,3.6l21.3-3.6v-1.1h3.1h0.3
	h3.2v1.1h4.3l0,0H96h0.1l4.3,2.7V44V32.7H99.2z M86.7,25.3l1,0.7l-1,0.7V25.3z M89.3,37.5l-1-0.7l1-0.7V37.5z M89.3,31l-1-0.7l1-0.7
	V31z M88,30.1l-1.2-0.9l1.2-0.9l1.2,0.9L88,30.1z M86.7,29.6l1,0.7l-1,0.7V29.6z M88,30.5l1.2,0.9L88,32.2l-1.2-0.9L88,30.5z
	 M89.3,31.7v1.4l-1-0.7L89.3,31.7z M89.3,28.8l-1-0.7l1-0.7V28.8z M88,27.9L86.8,27l1.2-0.9l1.2,0.9L88,27.9z M87.7,28.1l-1,0.7
	v-1.4L87.7,28.1z M87.7,32.4l-1,0.7v-1.4L87.7,32.4z M88,32.7l1.2,0.9L88,34.4l-1.2-0.9L88,32.7z M89.3,33.9v1.4l-1-0.7L89.3,33.9z
	 M89.2,35.7L88,36.6l-1.2-0.9l1.2-0.9L89.2,35.7z M87.7,36.8l-1,0.7v-1.4L87.7,36.8z M88,37l1.2,0.9L88,38.7l-1.2-0.9L88,37z
	 M89.3,38.2v1.4l-1-0.7L89.3,38.2z M89.3,26.7l-1-0.7l1-0.7V26.7z M88,25.8l-1.2-0.9h2.4L88,25.8z M86.7,33.9l1,0.7l-1,0.7V33.9z
	 M86.7,38.2l1,0.7l-1,0.7V38.2z M88,39.1l1.3,0.9L88,41.3L86.8,40L88,39.1z M89.3,40.5v1.8H89l-0.7-0.7L89.3,40.5z M88.5,42.2h-1
	h-0.1l0.5-0.5L88.5,42.2z M86.7,40.5l1,1L87,42.2h-0.3V40.5z M73.5,39.6l3,3.9l3-3.9V45h-6.1L73.5,39.6L73.5,39.6z M58.4,53.3v-3.2
	v-1.6V46v-1.6v-0.1c0-2.4-1.5-4.5-3.7-5.3v-2.8h-1.3v-1.1h-0.3v-3.4c0-0.5,0.4-1,1-1h9.4c0.5,0,1,0.4,1,1v3.4h-0.3v1.1H63V39
	c-2.2,0.8-3.7,2.9-3.7,5.3l0,0V46v2.5V50v3.2L58.4,53.3L58.4,53.3z M72,53.3h-0.9V50v-1.6V46v-1.6l0,0c0-2.5-1.6-4.5-3.7-5.3v-2.8
	h-1.2v-1.1h-0.3v-3.4c0-1.3-1.1-2.4-2.4-2.4h-3.9v-2.6c0-0.5,0.4-1,1-1H65l0,0h10.8V28h-1.2v2.5h-1.8v8.4V45H72V53.3z M84.5,51.4
	h-0.3h-3.1V51l3.5-3.5l2.9-2.9h0.1v6.8C87.6,51.4,84.5,51.4,84.5,51.4z"/>
<polygon class="st7" points="47.4,35 46.4,35 45.4,35 44.5,53.6 46.4,53.6 48.4,53.6 "/>
<polygon class="st7" points="53,35 52,35 51,35 50.1,53.6 52,53.6 53.9,53.6 "/>
<polygon class="st7" points="58.5,35 57.5,35 56.5,35 55.6,53.6 57.5,53.6 59.4,53.6 "/>
<polygon class="st8" points="49.5,38.2 44,46.7 44,62.6 49.5,62.6 "/>
<polygon class="st8" points="55.1,38.2 49.5,46.7 49.5,62.6 55.1,62.6 "/>
<polygon class="st8" points="60.6,38.2 55.1,46.7 55.1,62.6 60.6,62.6 "/>
<g>
	<g>
		<path class="st1" d="M45.5,33.4c0,0.5-0.4,0.8-0.8,0.8c-0.4,0-0.8-0.4-0.8-0.8c0-0.4,0.4-0.8,0.8-0.8
			C45.1,32.6,45.5,32.9,45.5,33.4z"/>
		<path class="st1" d="M46.6,32.8c0,0.4-0.4,0.8-0.8,0.8c-0.4,0-0.8-0.4-0.8-0.8c0-0.5,0.4-0.8,0.8-0.8C46.3,32,46.6,32.4,46.6,32.8
			z"/>
		<path class="st1" d="M46.1,33.6c0,0.3-0.2,0.6-0.6,0.6c-0.3,0-0.6-0.2-0.6-0.6c0-0.3,0.2-0.6,0.6-0.6C45.9,33,46.1,33.3,46.1,33.6
			z"/>
		<path class="st1" d="M44.9,32c0,0.4-0.4,0.8-0.8,0.8c-0.4,0-0.8-0.4-0.8-0.8c0-0.5,0.4-0.8,0.8-0.8C44.6,31.2,44.9,31.6,44.9,32z"
			/>
		<path class="st1" d="M46.1,32.2c0,0.4-0.4,0.8-0.8,0.8c-0.4,0-0.8-0.4-0.8-0.8c0-0.5,0.4-0.8,0.8-0.8
			C45.7,31.4,46.1,31.8,46.1,32.2z"/>
		<path class="st1" d="M44.1,31.2c0,0.3-0.2,0.5-0.5,0.5s-0.5-0.2-0.5-0.5s0.2-0.5,0.5-0.5C43.9,30.7,44.1,30.9,44.1,31.2z"/>
		<path class="st1" d="M46.7,33.9c0,0.2-0.2,0.4-0.4,0.4s-0.4-0.2-0.4-0.4s0.2-0.4,0.4-0.4C46.6,33.5,46.7,33.7,46.7,33.9z"/>
	</g>
</g>
<g>
	<g>
		<path class="st1" d="M51,33.4c0,0.4-0.4,0.8-0.8,0.8c-0.5,0-0.8-0.4-0.8-0.8c0-0.5,0.4-0.8,0.8-0.8C50.7,32.6,51,33,51,33.4z"/>
		<path class="st1" d="M52.2,32.9c0,0.4-0.4,0.8-0.8,0.8c-0.4,0-0.8-0.4-0.8-0.8c0-0.4,0.4-0.8,0.8-0.8
			C51.8,32.1,52.2,32.4,52.2,32.9z"/>
		<path class="st1" d="M51.7,33.6c0,0.3-0.2,0.6-0.6,0.6c-0.3,0-0.6-0.2-0.6-0.6s0.2-0.6,0.6-0.6C51.4,33.1,51.7,33.3,51.7,33.6z"/>
		<path class="st1" d="M50.5,32.1c0,0.4-0.4,0.8-0.8,0.8c-0.4,0-0.8-0.4-0.8-0.8s0.4-0.8,0.8-0.8S50.5,31.6,50.5,32.1z"/>
		<circle class="st1" cx="50.8" cy="32.2" r="0.8"/>
		<path class="st1" d="M49.7,31.3c0,0.3-0.2,0.5-0.5,0.5s-0.5-0.2-0.5-0.5s0.2-0.5,0.5-0.5C49.4,30.7,49.7,31,49.7,31.3z"/>
		<path class="st1" d="M52.3,34c0,0.2-0.2,0.4-0.4,0.4s-0.4-0.2-0.4-0.4s0.2-0.4,0.4-0.4S52.3,33.7,52.3,34z"/>
	</g>
</g>
<g>
	<g>
		<path class="st1" d="M56.4,33.5c0,0.4-0.4,0.8-0.8,0.8c-0.5,0-0.8-0.4-0.8-0.8c0-0.4,0.4-0.8,0.8-0.8C56,32.6,56.4,33,56.4,33.5z"
			/>
		<path class="st1" d="M57.5,32.9c0,0.5-0.4,0.8-0.8,0.8c-0.4,0-0.8-0.4-0.8-0.8c0-0.4,0.4-0.8,0.8-0.8
			C57.2,32.1,57.5,32.5,57.5,32.9z"/>
		<path class="st1" d="M57,33.7c0,0.3-0.2,0.6-0.6,0.6c-0.3,0-0.6-0.2-0.6-0.6c0-0.3,0.2-0.6,0.6-0.6C56.8,33.1,57,33.4,57,33.7z"/>
		<path class="st1" d="M55.8,32.1c0,0.4-0.4,0.8-0.8,0.8c-0.5,0-0.8-0.4-0.8-0.8c0-0.4,0.4-0.8,0.8-0.8
			C55.5,31.3,55.8,31.7,55.8,32.1z"/>
		<path class="st1" d="M57,32.3c0,0.4-0.4,0.8-0.8,0.8c-0.5,0-0.8-0.4-0.8-0.8c0-0.4,0.4-0.8,0.8-0.8S57,31.8,57,32.3z"/>
		<path class="st1" d="M55,31.3c0,0.3-0.2,0.5-0.5,0.5S54,31.6,54,31.3s0.2-0.5,0.5-0.5S55,31,55,31.3z"/>
		<path class="st1" d="M57.6,34c0,0.2-0.2,0.4-0.4,0.4s-0.4-0.2-0.4-0.4s0.2-0.4,0.4-0.4C57.4,33.6,57.6,33.8,57.6,34z"/>
	</g>
</g>
<rect x="80.6" y="51.6" class="st9" width="1" height="3.3"/>
<rect x="76.3" y="53.5" class="st9" width="5.8" height="0.5"/>
<rect x="76.9" y="51.6" class="st9" width="1" height="3.3"/>
<rect x="78.8" y="51.6" class="st9" width="1" height="3.3"/>
<g>
	<rect x="75.4" y="45.5" class="st9" width="0.3" height="6.8"/>
	<rect x="75.6" y="46.1" class="st9" width="1.1" height="0.4"/>
	<rect x="75.6" y="46.9" class="st9" width="1.1" height="0.4"/>
	<rect x="75.6" y="47.8" class="st9" width="1.1" height="0.4"/>
	<rect x="75.6" y="48.7" class="st9" width="1.1" height="0.4"/>
	<rect x="75.6" y="49.6" class="st9" width="1.1" height="0.4"/>
	<rect x="75.6" y="50.5" class="st9" width="1.1" height="0.4"/>
	<rect x="75.6" y="51.4" class="st9" width="1.1" height="0.4"/>
</g>
<rect x="72.4" y="51.6" class="st9" width="1" height="3.3"/>
<rect x="68.1" y="53.5" class="st9" width="5.8" height="0.5"/>
<rect x="68.7" y="51.6" class="st9" width="1" height="3.3"/>
<rect x="70.6" y="51.6" class="st9" width="1" height="3.3"/>
<g>
	<rect x="67.2" y="45.3" class="st9" width="0.3" height="6.8"/>
	<rect x="67.4" y="45.8" class="st9" width="1.1" height="0.4"/>
	<rect x="67.4" y="46.7" class="st9" width="1.1" height="0.4"/>
	<rect x="67.4" y="47.6" class="st9" width="1.1" height="0.4"/>
	<rect x="67.4" y="48.5" class="st9" width="1.1" height="0.4"/>
	<rect x="67.4" y="49.4" class="st9" width="1.1" height="0.4"/>
	<rect x="67.4" y="50.3" class="st9" width="1.1" height="0.4"/>
	<rect x="67.4" y="51.1" class="st9" width="1.1" height="0.4"/>
</g>
<rect x="76.2" y="35.6" class="st7" width="11.7" height="1.3"/>
<rect x="76.3" y="45.3" class="st10" width="5.8" height="6.8"/>
<g>
	<g>
		<polygon class="st10" points="79.2,41.5 76.3,45.3 79.2,45.3 82.1,45.3 		"/>
		<polygon class="st10" points="68.1,45.3 68.1,52.1 73.9,52.1 73.9,45.3 71,41.5 		"/>
	</g>
</g>
<polygon class="st7" points="113,42.1 115.1,42.1 117.2,42.1 117,39 113.1,39 "/>
<polygon class="st7" points="116.2,24.2 115.1,24.2 114,24.2 113.6,30.4 116.6,30.4 "/>
<polygon class="st11" points="113.1,39 117,39 116.9,36.1 113.3,36.1 "/>
<polygon class="st7" points="113.5,33.3 113.3,36.1 116.9,36.1 116.7,33.3 "/>
<polygon class="st11" points="116.6,30.4 113.6,30.4 113.5,33.3 116.7,33.3 "/>
<rect x="113.3" y="25.7" class="st11" width="3.6" height="1.8"/>
<rect x="84.9" y="43.3" class="st9" width="14.6" height="19.3"/>
<rect x="111.9" y="41.4" class="st9" width="6.4" height="21.2"/>
<polygon class="st9" points="84.9,62.6 60.4,62.6 60.4,58.6 64.4,54.9 84.9,54.9 "/>
<g>
	<path class="st7" d="M71.7,42.5h-1.3v-1.8c0-1,0.8-1.8,1.8-1.8h5.9v1.3h-5.9c-0.2,0-0.4,0.2-0.4,0.4L71.7,42.5L71.7,42.5z"/>
	<path class="st7" d="M75.9,39.2h-1.3v-1.8c0-1,0.8-1.8,1.8-1.8h3.1V37h-3.1c-0.2,0-0.4,0.2-0.4,0.4L75.9,39.2L75.9,39.2z"/>
	<path class="st7" d="M80,42.5h-1.3v-1.8c0-0.2-0.2-0.4-0.4-0.4h-5.9V39h5.9c1,0,1.8,0.8,1.8,1.8L80,42.5L80,42.5z"/>
</g>
<rect x="86.2" y="34.2" class="st9" width="10.9" height="9.1"/>
<g>
	<g>
		<rect x="64.9" y="56.2" class="st12" width="1.5" height="0.8"/>
		<rect x="67.4" y="56.2" class="st12" width="1.5" height="0.8"/>
		<rect x="69.9" y="56.2" class="st12" width="1.5" height="0.8"/>
		<rect x="72.4" y="56.2" class="st12" width="1.5" height="0.8"/>
		<rect x="74.9" y="56.2" class="st12" width="1.5" height="0.8"/>
		<rect x="77.4" y="56.2" class="st12" width="1.5" height="0.8"/>
		<rect x="79.9" y="56.2" class="st12" width="1.5" height="0.8"/>
		<rect x="82.4" y="56.2" class="st12" width="1.5" height="0.8"/>
	</g>
	<g>
		<rect x="64.9" y="58.5" class="st12" width="1.5" height="0.8"/>
		<rect x="67.4" y="58.5" class="st12" width="1.5" height="0.8"/>
		<rect x="69.9" y="58.5" class="st12" width="1.5" height="0.8"/>
		<rect x="72.4" y="58.5" class="st12" width="1.5" height="0.8"/>
		<rect x="74.9" y="58.5" class="st12" width="1.5" height="0.8"/>
		<rect x="77.4" y="58.5" class="st12" width="1.5" height="0.8"/>
		<rect x="79.9" y="58.5" class="st12" width="1.5" height="0.8"/>
		<rect x="82.4" y="58.5" class="st12" width="1.5" height="0.8"/>
	</g>
	<g>
		<rect x="64.9" y="60.8" class="st12" width="1.5" height="0.8"/>
		<rect x="67.4" y="60.8" class="st12" width="1.5" height="0.8"/>
		<rect x="69.9" y="60.8" class="st12" width="1.5" height="0.8"/>
		<rect x="72.4" y="60.8" class="st12" width="1.5" height="0.8"/>
		<rect x="74.9" y="60.8" class="st12" width="1.5" height="0.8"/>
		<rect x="77.4" y="60.8" class="st12" width="1.5" height="0.8"/>
		<rect x="79.9" y="60.8" class="st12" width="1.5" height="0.8"/>
		<rect x="82.4" y="60.8" class="st12" width="1.5" height="0.8"/>
	</g>
</g>
<g>
	<g>
		<g>
			<rect x="99.7" y="51.1" class="st12" width="6.2" height="2.9"/>
			<path class="st9" d="M106,54.2h-6.5V51h6.5V54.2z M99.8,53.8h5.8v-2.5h-5.8V53.8z"/>
		</g>
		<g>
			<polygon class="st9" points="99.8,54.1 99.6,53.9 102.7,51 102.9,51.3 			"/>
		</g>
		<g>
			<polygon class="st9" points="105.7,54.1 102.7,51.3 102.9,51 106,53.9 			"/>
		</g>
	</g>
	<g>
		<g>
			<rect x="105.9" y="51.1" class="st12" width="6.2" height="2.9"/>
			<path class="st9" d="M112.2,54.2h-6.5V51h6.5V54.2z M106,53.8h5.8v-2.5H106V53.8z"/>
		</g>
		<g>
			<polygon class="st9" points="106,54.1 105.7,53.9 108.8,51 109.1,51.3 			"/>
		</g>
		<g>
			<polygon class="st9" points="111.9,54.1 108.8,51.3 109.1,51 112.2,53.9 			"/>
		</g>
	</g>
</g>
<g>
	<g>
		<polygon class="st12" points="97,31.7 94.5,31.7 92,31.7 92,34.2 97,34.2 99.5,31.7 		"/>
		<polygon class="st12" points="110.2,42.4 106.6,38.8 103.1,35.3 99.5,31.7 97.1,34.2 100.6,37.7 104.2,41.3 107.7,44.8 
			111.9,49.1 111.9,44.1 		"/>
	</g>
	<g>
		<path class="st9" d="M112.1,44.1l-1.9-1.9l0,0l-3.3-3.3l0,0l-3.5-3.5l0,0l-0.1-0.1l-0.2-0.2l0,0l-3.5-3.5l0,0l0,0H97h-2.5H92
			l-0.2,0.2v2.6h0.1v0.1h5l0,0l3.6,3.6l3.3,3.3l0.2,0.2l3.4,3.4l4.5,4.6v-5.5H112.1z M105.3,39.9l-0.9,0.9l0.5-3.4l1.4,1.4
			L105.3,39.9z M108.2,40.8l-0.6,3.7l-3.1-3.1L108.2,40.8z M104.7,41l2-2l1.4,1.4L104.7,41z M110.2,42.6l1.4,1.4l-3.4,0.5
			L110.2,42.6z M108,44.3l0.5-3.4l1.4,1.4L108,44.3z M103.1,35.5l1.4,1.4l-3.4,0.5l0.9-0.9L103.1,35.5z M99.5,32l1.4,1.4l-3.4,0.5
			L99.5,32z M101.1,33.7l-0.6,3.7l-3.1-3.1L101.1,33.7z M101.7,36.4l-0.9,0.9l0.5-3.4l1.4,1.4L101.7,36.4z M97.2,33.8v-2h1.9
			L97.2,33.8z M96.8,33.8l-1.9-2h1.9V33.8z M92.2,31.8h1.9L92.9,33l-0.8,0.8L92.2,31.8L92.2,31.8z M92.4,34.1l2.1-2.1l2.1,2.1H92.4z
			 M101,37.8l3.7-0.6l-0.6,3.7L101,37.8z M108.1,44.9l3.7-0.6v4.4L108.1,44.9z"/>
	</g>
	<g>
		<rect x="111.8" y="44.1" class="st9" width="0.3" height="5"/>
	</g>
</g>
<g>
	<g>
		<rect x="86.3" y="46.3" class="st12" width="1.4" height="3.1"/>
		<rect x="88.1" y="46.3" class="st12" width="1.4" height="3.1"/>
	</g>
	<g>
		<rect x="90.6" y="46.3" class="st12" width="1.4" height="3.1"/>
		<rect x="92.4" y="46.3" class="st12" width="1.4" height="3.1"/>
	</g>
	<g>
		<rect x="94.8" y="46.3" class="st12" width="1.4" height="3.1"/>
		<rect x="96.7" y="46.3" class="st12" width="1.4" height="3.1"/>
	</g>
	<g>
		<rect x="86.3" y="51.4" class="st12" width="1.4" height="3.1"/>
		<rect x="88.2" y="51.4" class="st12" width="1.4" height="3.1"/>
	</g>
	<g>
		<rect x="90.6" y="51.4" class="st12" width="1.4" height="3.1"/>
		<rect x="92.5" y="51.4" class="st12" width="1.4" height="3.1"/>
	</g>
	<g>
		<rect x="94.9" y="51.4" class="st12" width="1.4" height="3.1"/>
		<rect x="96.7" y="51.4" class="st12" width="1.4" height="3.1"/>
	</g>
	<g>
		<rect x="86.4" y="56.6" class="st12" width="1.4" height="3.1"/>
		<rect x="88.2" y="56.6" class="st12" width="1.4" height="3.1"/>
	</g>
	<g>
		<rect x="90.7" y="56.6" class="st12" width="1.4" height="3.1"/>
		<rect x="92.5" y="56.6" class="st12" width="1.4" height="3.1"/>
	</g>
	<g>
		<rect x="94.9" y="56.6" class="st12" width="1.4" height="3.1"/>
		<rect x="96.7" y="56.6" class="st12" width="1.4" height="3.1"/>
	</g>
</g>
<g>
	<g>
		<rect x="113.5" y="52.6" class="st12" width="1.4" height="1.8"/>
		<rect x="115.3" y="52.6" class="st12" width="1.4" height="1.8"/>
	</g>
	<g>
		<g>
			<rect x="113.5" y="55.5" class="st12" width="1.4" height="1.8"/>
			<rect x="115.4" y="55.5" class="st12" width="1.4" height="1.8"/>
		</g>
	</g>
	<g>
		<g>
			<rect x="113.6" y="58.5" class="st12" width="1.4" height="1.8"/>
			<rect x="115.4" y="58.5" class="st12" width="1.4" height="1.8"/>
		</g>
	</g>
</g>
<g>
	<g>
		<rect x="113.5" y="43.8" class="st12" width="1.4" height="1.8"/>
		<rect x="115.3" y="43.8" class="st12" width="1.4" height="1.8"/>
	</g>
	<g>
		<rect x="113.5" y="46.8" class="st12" width="1.4" height="1.8"/>
		<rect x="115.4" y="46.8" class="st12" width="1.4" height="1.8"/>
	</g>
	<g>
		<rect x="113.6" y="49.7" class="st12" width="1.4" height="1.8"/>
		<rect x="115.4" y="49.7" class="st12" width="1.4" height="1.8"/>
	</g>
</g>
<rect x="68.1" y="45.3" class="st13" width="5.8" height="1.6"/>
<rect x="68.1" y="49" class="st13" width="5.8" height="1.6"/>
<rect x="76.3" y="45.2" class="st13" width="5.8" height="1.6"/>
<rect x="76.3" y="49" class="st13" width="5.8" height="1.6"/>
<rect x="99.5" y="56.4" class="st9" width="12.4" height="6.2"/>
<rect x="102.4" y="58.1" class="st12" width="3.2" height="4"/>
<rect x="105.9" y="58.1" class="st12" width="3.2" height="4"/>
<g>
	<g>
		<path class="st9" d="M88,32.4c-0.5,0-1,0.4-1,1v0.9h2v-0.9C89,32.8,88.5,32.4,88,32.4z"/>
		<path class="st9" d="M91.2,33.4c0-0.5-0.4-1-1-1c-0.5,0-1,0.4-1,1v0.9h1.9L91.2,33.4L91.2,33.4z"/>
	</g>
</g>
<rect x="87.9" y="35.6" class="st12" width="7.6" height="0.7"/>
<rect x="87.9" y="37.2" class="st12" width="7.6" height="0.7"/>
<rect x="87.9" y="38.8" class="st12" width="7.6" height="0.7"/>
<rect x="87.9" y="40.4" class="st12" width="7.6" height="0.7"/>
<rect x="20.6" y="45.7" class="st8" width="0.4" height="15.2"/>
<rect x="20.8" y="59.3" class="st8" width="1.4" height="0.4"/>
<rect x="20.8" y="57.9" class="st8" width="1.4" height="0.4"/>
<rect x="20.8" y="56.5" class="st8" width="1.4" height="0.4"/>
<rect x="20.8" y="55.1" class="st8" width="1.4" height="0.4"/>
<rect x="20.8" y="53.7" class="st8" width="1.4" height="0.4"/>
<rect x="20.8" y="52.3" class="st8" width="1.4" height="0.4"/>
<rect x="20.8" y="50.9" class="st8" width="1.4" height="0.4"/>
<rect x="20.8" y="49.5" class="st8" width="1.4" height="0.4"/>
<rect x="20.8" y="48.1" class="st8" width="1.4" height="0.4"/>
<rect x="20.8" y="46.7" class="st8" width="1.4" height="0.4"/>
<g>
	<rect x="10.7" y="41.3" class="st8" width="0.4" height="15.2"/>
	<rect x="10.8" y="55" class="st8" width="1.4" height="0.4"/>
	<rect x="10.8" y="53.6" class="st8" width="1.4" height="0.4"/>
	<rect x="10.8" y="52.2" class="st8" width="1.4" height="0.4"/>
	<rect x="10.8" y="50.8" class="st8" width="1.4" height="0.4"/>
	<rect x="10.8" y="49.4" class="st8" width="1.4" height="0.4"/>
	<rect x="10.8" y="48" class="st8" width="1.4" height="0.4"/>
	<rect x="10.8" y="46.6" class="st8" width="1.4" height="0.4"/>
	<rect x="10.8" y="45.2" class="st8" width="1.4" height="0.4"/>
	<rect x="10.8" y="43.8" class="st8" width="1.4" height="0.4"/>
	<rect x="10.8" y="42.4" class="st8" width="1.4" height="0.4"/>
</g>
<g>
	<rect x="16.8" y="55.7" class="st8" width="1.4" height="0.4"/>
	<rect x="16.8" y="54.2" class="st8" width="1.4" height="0.4"/>
	<rect x="16.8" y="52.7" class="st8" width="1.4" height="0.4"/>
	<rect x="16.8" y="51.2" class="st8" width="1.4" height="0.4"/>
	<rect x="16.8" y="49.7" class="st8" width="1.4" height="0.4"/>
	<rect x="16.8" y="48.3" class="st8" width="1.4" height="0.4"/>
	<rect x="16.8" y="46.8" class="st8" width="1.4" height="0.4"/>
	<rect x="16.8" y="45.3" class="st8" width="1.4" height="0.4"/>
	<rect x="16.8" y="43.8" class="st8" width="1.4" height="0.4"/>
	<rect x="16.8" y="42.3" class="st8" width="1.4" height="0.4"/>
</g>
<g>
	<g>
		
			<rect x="39.9" y="26.1" transform="matrix(0.5858 -0.8105 0.8105 0.5858 -6.7271 44.4995)" class="st14" width="0.5" height="5.4"/>
		
			<rect x="37.5" y="31.7" transform="matrix(0.8106 -0.5856 0.5856 0.8106 -11.0924 29.5931)" class="st14" width="5.4" height="0.5"/>
	</g>
	<g>
		
			<rect x="39.9" y="32.4" transform="matrix(0.5859 -0.8104 0.8104 0.5859 -11.8298 47.1078)" class="st14" width="0.5" height="5.4"/>
		<polygon class="st14" points="38.2,40 37.9,39.6 42.2,36.5 42.5,36.9 		"/>
	</g>
	<g>
		
			<rect x="39.9" y="38.7" transform="matrix(0.5857 -0.8105 0.8105 0.5857 -16.9262 49.731)" class="st14" width="0.5" height="5.4"/>
		
			<rect x="37.5" y="44.3" transform="matrix(0.8106 -0.5856 0.5856 0.8106 -18.4665 31.9858)" class="st14" width="5.4" height="0.5"/>
	</g>
	<g>
		
			<rect x="39.9" y="45" transform="matrix(0.5858 -0.8105 0.8105 0.5858 -22.0228 52.3439)" class="st14" width="0.5" height="5.4"/>
		<rect x="37" y="51.2" transform="matrix(0.7072 -0.707 0.707 0.7072 -24.6212 43.4499)" class="st14" width="6.3" height="0.5"/>
	</g>
</g>
<g>
	<g>
		
			<rect x="37.5" y="28.6" transform="matrix(0.8109 -0.5851 0.5851 0.8109 -9.2551 28.9806)" class="st14" width="5.4" height="0.5"/>
		
			<rect x="39.9" y="29.3" transform="matrix(0.5857 -0.8105 0.8105 0.5857 -9.2652 45.8277)" class="st14" width="0.5" height="5.4"/>
	</g>
	<g>
		
			<rect x="37.5" y="34.8" transform="matrix(0.8103 -0.586 0.586 0.8103 -12.9074 30.1841)" class="st14" width="5.4" height="0.5"/>
		
			<rect x="39.9" y="35.5" transform="matrix(0.5861 -0.8103 0.8103 0.5861 -14.3544 48.3328)" class="st14" width="0.5" height="5.4"/>
	</g>
	<g>
		
			<rect x="37.5" y="41.1" transform="matrix(0.8109 -0.5851 0.5851 0.8109 -16.5865 31.3192)" class="st14" width="5.4" height="0.5"/>
		
			<rect x="39.9" y="41.8" transform="matrix(0.5857 -0.8105 0.8105 0.5857 -19.4496 50.9676)" class="st14" width="0.5" height="5.4"/>
	</g>
	<g>
		
			<rect x="37.5" y="47.4" transform="matrix(0.8099 -0.5865 0.5865 0.8099 -20.2954 32.6178)" class="st14" width="5.4" height="0.5"/>
		<polygon class="st14" points="42.2,53.8 37.8,49.4 38.1,49.1 42.6,53.5 		"/>
	</g>
</g>
<rect x="50.1" y="65.9" class="st14" width="1.5" height="2.6"/>
<path class="st14" d="M56.4,66.6H44.5c-1.5,0-2.6-0.9-2.6-2s1.1-1.9,2.6-1.9v1.5c-0.7,0-1.1,0.3-1.1,0.4c0,0.2,0.4,0.5,1.1,0.5h11.9
	V66.6z"/>
<path class="st14" d="M37.3,66.6H15.5v-1.5h21.8c0.7,0,1.1-0.3,1.1-0.5s-0.4-0.5-1.1-0.5v-1.5c1.5,0,2.6,0.9,2.6,2
	C39.9,65.8,38.8,66.6,37.3,66.6z"/>
<path class="st14" d="M56.4,69.2H34.6v-1.5h21.8c0.7,0,1.1-0.3,1.1-0.5s-0.4-0.5-1.1-0.5v-1.5c1.5,0,2.6,0.9,2.6,2
	C59.1,68.3,57.9,69.2,56.4,69.2z"/>
<path class="st14" d="M37.4,69.2H15.6c-1.5,0-2.6-0.9-2.6-2s1.1-2,2.6-2v1.5c-0.7,0-1.1,0.3-1.1,0.5s0.4,0.5,1.1,0.5h21.8V69.2z"/>
<path class="st14" d="M61.6,54c1.5,0,2.6-0.9,2.6-2s-1.1-2-2.5-2l0,0c-0.7,0-1.1-0.3-1.1-0.5S61,49,61.7,49c1.5,0,2.6-0.9,2.6-2
	s-1.1-2-2.6-2h-6.3c-1,0-1.9,0.8-1.9,1.9v1.2h-1.7c-1,0-1.8,0.8-1.8,1.9v1.4h-2.3c-1,0-1.8,0.8-1.8,1.8V55h1.5v-1.8
	c0-0.2,0.2-0.4,0.4-0.4h2.3l0,0h0.7h0.7l0,0h2.3c0.2,0,0.4,0.2,0.4,0.4V55h1.5v-1.8c0-1-0.8-1.8-1.8-1.8h-2.3V50
	c0-0.2,0.2-0.4,0.4-0.4h3.2v-0.8l0,0V47c0-0.2,0.2-0.4,0.4-0.4h6.3c0.7,0,1.1,0.3,1.1,0.5s-0.4,0.5-1.1,0.5c-1.5,0-2.6,0.9-2.6,2
	s1.1,2,2.5,2l0,0c0.7,0,1.1,0.3,1.1,0.5s-0.4,0.5-1.1,0.5c-1.5,0-2.6,0.9-2.6,2s1.1,2,2.6,2c0.7,0,1.1,0.3,1.1,0.5s-0.4,0.5-1.1,0.5
	c-1.5,0-2.6,0.9-2.6,2s1.1,2,2.6,2c0.7,0,1.1,0.3,1.1,0.5s-0.4,0.5-1.1,0.5H44.5v1.5h17.1c1.5,0,2.6-0.9,2.6-2s-1.1-2-2.6-2
	c-0.7,0-1.1-0.3-1.1-0.5s0.4-0.5,1.1-0.5c1.5,0,2.6-0.9,2.6-2s-1.1-2-2.6-2c-0.7,0-1.1-0.3-1.1-0.5S60.9,54,61.6,54z"/>
<rect x="20.4" y="63.3" class="st14" width="1.5" height="2.6"/>
<polygon class="st14" points="37.3,62.6 62.9,62.6 62,64.1 37.3,64.1 "/>
<rect x="34.3" y="65.4" class="st14" width="1.5" height="2.6"/>
<path class="st14" d="M9.5,62.6c-0.7,0-1.1-0.3-1.1-0.5s0.4-0.5,1.1-0.5l0,0h2.2v-1.5H9.5c-1.5,0-2.6,0.9-2.6,2s1.1,2,2.6,2h21.8
	v-1.5H9.5z"/>
<rect x="31.4" y="62.6" class="st14" width="5.9" height="1.5"/>
<g>
	<path class="st9" d="M16.9,36.3c0-1.4-1.2-2.6-2.6-2.6s-2.6,1.2-2.6,2.6v26.3h5.2C16.9,62.6,16.9,36.3,16.9,36.3z"/>
</g>
<g>
	<path class="st9" d="M30.2,45.4c0-2.2-1.8-4-4-4s-4,1.8-4,4v17.2h8.1V45.4H30.2z"/>
</g>
<g>
	<path class="st9" d="M18.8,62.6l-1.1,0.1V32.5c0-1.1-0.7-1.9-1.5-1.9c-0.8,0-1.5,0.9-1.5,1.9v1.6h-1.1v-1.6c0-1.7,1.2-3,2.6-3
		s2.6,1.3,2.6,3V62.6z"/>
</g>
<rect x="30.2" y="48" class="st8" width="4.8" height="0.6"/>
<rect x="30.2" y="50" class="st8" width="4.8" height="0.6"/>
<rect x="30.2" y="52.1" class="st8" width="4.8" height="0.6"/>
<rect x="30.2" y="54.1" class="st8" width="4.8" height="0.6"/>
<rect x="30.2" y="56.2" class="st8" width="4.8" height="0.6"/>
<rect x="42" y="26.8" class="st14" width="0.6" height="26.9"/>
<rect x="30.2" y="58.2" class="st8" width="4.8" height="0.6"/>
<rect x="37.7" y="26.6" class="st14" width="4.9" height="0.6"/>
<rect x="37.7" y="26.8" class="st14" width="0.6" height="26.9"/>
<rect x="39.5" y="23.7" class="st14" width="1.4" height="3.3"/>
<rect x="38.9" y="22.5" class="st14" width="2.5" height="1.8"/>
<rect x="45.2" y="54.9" class="st15" width="2.8" height="7.7"/>
<rect x="44.6" y="55.6" class="st14" width="4" height="1"/>
<rect x="44.6" y="58.4" class="st14" width="4" height="1"/>
<rect x="44.6" y="61.1" class="st14" width="4" height="1"/>
<g>
	<path class="st9" d="M33.6,62.6h-1.7V39.8c0-1.7-1.1-3.1-2.4-3.1s-2.4,1.4-2.4,3.1v2.5l-1.7-0.1v-2.5c0-2.6,1.9-4.8,4.1-4.8
		c2.3,0,4.1,2.1,4.1,4.8V62.6z"/>
</g>
<rect x="11.7" y="40" class="st14" width="5.2" height="1.3"/>
<rect x="11.7" y="44.3" class="st14" width="5.2" height="1.3"/>
<rect x="11.7" y="48.7" class="st14" width="5.2" height="1.3"/>
<rect x="11.7" y="53.9" class="st14" width="5.2" height="1.3"/>
<path class="st15" d="M56.7,61.3c1.2-0.6,2-1.7,2-3c0-1.6-1.2-2.9-2.7-3.3v-0.9h-2.1V55c-1.5,0.4-2.7,1.7-2.7,3.3
	c0,1.3,0.8,2.4,1.9,3l-1,0.4l-0.1,1h0.5l0.2-0.8l1.1-0.3c0.3,0.1,0.6,0.1,0.8,0.2v0.1l0.1,0.9h0.1H55l0.1-0.9l0,0
	c0.3,0,0.7-0.1,1-0.1l1,0.3l0.2,0.8h0.5l-0.1-1L56.7,61.3z"/>
<g>
	<rect x="54.1" y="56.2" class="st8" width="0.4" height="3.8"/>
	<rect x="55.5" y="56.2" class="st8" width="0.4" height="3.8"/>
	<rect x="54.2" y="57" class="st8" width="1.5" height="0.3"/>
	<rect x="54.2" y="58" class="st8" width="1.5" height="0.3"/>
	<rect x="54.2" y="59" class="st8" width="1.5" height="0.3"/>
</g>
<rect x="37" y="53.3" class="st9" width="6.6" height="9.4"/>
<g>
	<g>
		<rect x="25" y="43.3" class="st8" width="0.5" height="4.9"/>
		<rect x="26.9" y="43.3" class="st8" width="0.5" height="4.9"/>
		<rect x="25.2" y="44.3" class="st8" width="2" height="0.4"/>
		<rect x="25.2" y="45.6" class="st8" width="2" height="0.4"/>
		<rect x="25.2" y="46.9" class="st8" width="2" height="0.4"/>
	</g>
	<g>
		<rect x="25" y="48.2" class="st8" width="0.5" height="4.9"/>
		<rect x="26.9" y="48.2" class="st8" width="0.5" height="4.9"/>
		<rect x="25.2" y="49.2" class="st8" width="2" height="0.4"/>
		<rect x="25.2" y="50.5" class="st8" width="2" height="0.4"/>
		<rect x="25.2" y="51.8" class="st8" width="2" height="0.4"/>
	</g>
	<rect x="25" y="48" class="st8" width="2.4" height="0.4"/>
	<g>
		<rect x="25" y="52.9" class="st8" width="0.5" height="4.9"/>
		<rect x="26.9" y="52.9" class="st8" width="0.5" height="4.9"/>
		<rect x="25.2" y="53.9" class="st8" width="2" height="0.4"/>
		<rect x="25.2" y="55.1" class="st8" width="2" height="0.4"/>
		<rect x="25.2" y="56.4" class="st8" width="2" height="0.4"/>
	</g>
	<g>
		<rect x="25" y="57.7" class="st8" width="0.5" height="4.9"/>
		<rect x="26.9" y="57.7" class="st8" width="0.5" height="4.9"/>
		<rect x="25.2" y="58.7" class="st8" width="2" height="0.4"/>
		<rect x="25.2" y="60" class="st8" width="2" height="0.4"/>
		<rect x="25.2" y="61.3" class="st8" width="2" height="0.4"/>
	</g>
	<rect x="25" y="57.5" class="st8" width="2.4" height="0.4"/>
	<rect x="25.2" y="52.7" class="st8" width="2" height="0.4"/>
</g>
<g>
	<path class="st14" d="M23.3,109.7c4.7,0,8.5-3.8,8.5-8.5v-0.4v-0.4c0-4.7-3.8-8.5-8.5-8.5h-7v2.5h7c3.3,0,6.1,2.7,6.1,6.1v0.4v0.4
		c0,3.3-2.7,6.1-6.1,6.1h-7v2.5h7V109.7z"/>
</g>
<g>
	<path class="st14" d="M9.4,94.4c-4.7,0-8.5-3.8-8.5-8.5v-0.4v-0.4c0-4.7,3.8-8.5,8.5-8.5H19L18.6,79H9.3c-3.3,0-6.1,2.7-6.1,6.1
		v0.4v0.4c0,3.3,2.7,6.1,6.1,6.1h7v2.5L9.4,94.4L9.4,94.4z"/>
</g>
<g>
	<path class="st14" d="M9.4,125.1c-4.7,0-8.5-3.8-8.5-8.5v-0.4v-0.4c0-4.7,3.8-8.5,8.5-8.5h7v2.5h-7c-3.3,0-6.1,2.7-6.1,6.1v0.4v0.4
		c0,3.3,2.7,6.1,6.1,6.1h7v2.5h-7V125.1z"/>
</g>
<rect x="16.4" y="122.6" class="st14" width="12.5" height="2.5"/>
<g>
	<path class="st0" d="M40.3,107.8v-3.3c0-3.6-2.9-6.5-6.5-6.5h-3.7v2.5h3.7c2.2,0,4,1.8,4,4v3.3h-4c-3.4,0-6.3,2.7-6.4,6.1l0,0v0.4
		v0.4v9.3c0,3.4,2.7,6.3,6.1,6.4l0,0h0.4l0,0h0.4l0,0c3.4-0.2,6.1-3,6.1-6.4v-9.3V114v-3.6h13.8v-2.5H40.3V107.8z M37.8,124
		c0,2.2-1.8,4-4,4s-4-1.8-4-4v-9.3l0,0v-0.4c0-2.2,1.8-4,4-4h4v4V124z"/>
</g>
<g>
	<path class="st0" d="M69.3,122.2h-1.8c-1.9,0-3.5,1.6-3.5,3.5v2h1.4v-2c0-1.2,1-2.1,2.1-2.1h1.8v2.2c0,1.9,1.5,3.4,3.3,3.5l0,0h0.2
		H73h5.1c1.9,0,3.4-1.5,3.5-3.3l0,0v-0.2l0,0v-0.2l0,0c-0.1-1.8-1.6-3.3-3.5-3.3H73h-0.4h-2v-7.5h-1.3
		C69.3,114.8,69.3,122.2,69.3,122.2z M78.1,123.6c1.2,0,2.1,1,2.1,2.1c0,1.2-1,2.1-2.1,2.1H73l0,0h-0.2c-1.2,0-2.1-1-2.1-2.1v-2.2
		h2.1L78.1,123.6z"/>
</g>
<g>
	<path class="st0" d="M56.3,107.8h-7v2.5h7c3,0,5.5,2.2,6,5h2.5C64.3,111.1,60.7,107.8,56.3,107.8z"/>
</g>
<polygon class="st0" points="53.3,109.2 50.2,109.2 50.2,95.4 53.3,97.9 "/>
<rect x="108.1" y="116.9" class="st4" width="0.9" height="4.9"/>
<rect x="74.9" y="97.1" class="st4" width="6" height="1.1"/>
<rect x="49.1" y="102.7" class="st4" width="5.3" height="1"/>
<rect x="43.1" y="126.4" class="st4" width="5.3" height="1"/>
<rect x="53.1" y="112.7" class="st4" width="1" height="5.3"/>
<rect x="43.9" y="105.9" class="st4" width="1" height="5.3"/>
<rect x="25.7" y="115.2" class="st4" width="5.3" height="1"/>
<rect x="36.7" y="116.3" class="st4" width="5.3" height="1"/>
<g>
	<path class="st14" d="M24.9,68.6C25,69,25,69.4,25,69.9v0.4v0.4c0,3.3-2.7,6-6,6h-6.9V79H19c4.6,0,8.4-3.8,8.4-8.4v-0.4v-0.4
		c0-0.5,0-0.9-0.1-1.3h-2.4V68.6z"/>
</g>
<g>
	<path class="st9" d="M30.3,14.8c0-0.5,0.1-0.9,0.5-1.2c0.3-0.2,0.6-0.2,0.9-0.2c0.1-0.6,0.7-1.1,1.4-1.1s1.3,0.5,1.4,1.1
		c0.3,0,0.6,0,0.9,0.2c0.4,0.3,0.5,0.7,0.5,1.2c0.5,0.2,0.8,0.5,0.8,0.9v0.1c0,0.6-0.7,1.1-1.6,1.1H31c-0.9,0-1.6-0.5-1.6-1.1v-0.1
		C29.5,15.3,29.8,14.9,30.3,14.8z"/>
	<path class="st5" d="M26.6,15.1c0-0.4,0.1-0.7,0.4-1c0.2-0.1,0.4-0.2,0.7-0.2c0.1-0.5,0.6-0.9,1.1-0.9c0.6,0,1,0.4,1.1,0.9
		c0.2,0,0.5,0,0.7,0.2c0.3,0.2,0.4,0.6,0.4,1c0.4,0.1,0.6,0.4,0.6,0.8V16c0,0.5-0.6,0.9-1.2,0.9h-3.2c-0.7,0-1.2-0.4-1.2-0.9v-0.1
		C26,15.5,26.2,15.3,26.6,15.1z"/>
</g>
<path class="st16" d="M66.5,3.9c0-0.5,0.1-0.9,0.5-1.2c0.2-0.2,0.6-0.2,0.9-0.2c0.1-0.6,0.7-1.1,1.4-1.1c0.7,0,1.3,0.5,1.4,1.1
	c0.3,0,0.6,0,0.9,0.2C72,3,72.1,3.4,72.1,3.9c0.5,0.2,0.8,0.5,0.8,0.9v0.1c0,0.6-0.7,1.1-1.6,1.1h-4.1c-0.9,0-1.6-0.5-1.6-1.1V4.8
	C65.6,4.4,66,4.1,66.5,3.9z"/>
<path class="st5" d="M62.8,4.3c0-0.4,0.1-0.7,0.4-1c0.2-0.1,0.4-0.2,0.7-0.2C64,2.6,64.5,2.2,65,2.2c0.6,0,1,0.4,1.1,0.9
	c0.2,0,0.5,0,0.7,0.2c0.3,0.2,0.4,0.6,0.4,1c0.4,0.1,0.6,0.4,0.6,0.8v0.1c0,0.5-0.6,0.9-1.2,0.9h-3.2c-0.7,0-1.2-0.4-1.2-0.9V5
	C62.1,4.7,62.4,4.4,62.8,4.3z"/>
<g>
	<path class="st9" d="M94.4,14.8c0-0.6,0.2-1.1,0.6-1.4c0.3-0.2,0.7-0.3,1.1-0.3c0.1-0.8,0.9-1.4,1.8-1.4s1.6,0.6,1.8,1.4
		c0.4,0,0.8,0,1.1,0.3c0.5,0.3,0.7,0.8,0.6,1.4c0.6,0.2,1,0.6,1,1.1V16c0,0.7-0.9,1.3-2,1.3h-5c-1.1,0-2-0.6-2-1.3v-0.1
		C93.4,15.4,93.8,15,94.4,14.8z"/>
	<path class="st5" d="M89.9,15.2c0-0.5,0.1-0.9,0.5-1.2c0.2-0.2,0.5-0.2,0.8-0.2c0.1-0.7,0.7-1.2,1.4-1.2c0.7,0,1.3,0.5,1.4,1.2
		c0.3,0,0.6,0,0.8,0.2c0.4,0.3,0.5,0.7,0.5,1.2c0.5,0.2,0.8,0.5,0.8,0.9v0.1c0,0.6-0.7,1.1-1.5,1.1h-3.9c-0.8,0-1.5-0.5-1.5-1.1
		v-0.1C89.2,15.8,89.5,15.4,89.9,15.2z"/>
</g>
<rect x="64.1" y="127.8" class="st0" width="1.4" height="7.5"/>
<path class="st14" d="M33.3,100c0,0.5-0.4,0.9-0.9,0.9h-3.7c-0.5,0-0.9-0.4-0.9-0.9v-1.4c0-0.5,0.4-0.9,0.9-0.9h3.7
	c0.5,0,0.9,0.4,0.9,0.9V100z"/>
<path class="st14" d="M31.2,124.5c0,0.5-0.4,0.9-0.9,0.9h-3.7c-0.5,0-0.9-0.4-0.9-0.9v-1.4c0-0.5,0.4-0.9,0.9-0.9h3.7
	c0.5,0,0.9,0.4,0.9,0.9V124.5z"/>
<rect x="16.3" y="121.1" class="st17" width="1.2" height="5"/>
<rect x="8.4" y="106" class="st17" width="1.2" height="5"/>
<rect x="18.4" y="90.5" class="st17" width="1.2" height="5"/>
<rect y="84.3" class="st17" width="5" height="1.2"/>
<rect x="11" y="75.2" class="st17" width="1.2" height="5"/>
<polygon class="st3" points="85.3,88.1 123.8,67.5 90.4,90.6 "/>
<rect x="79.6" y="125.4" class="st4" width="2.6" height="0.6"/>
<rect x="75.5" y="127.3" class="st4" width="0.6" height="2.2"/>
<rect x="75.5" y="121.8" class="st4" width="0.6" height="2.2"/>
</svg>
