<?xml version="1.0" encoding="utf-8"?>
<!-- Generator: Adobe Illustrator 25.2.3, SVG Export Plug-In . SVG Version: 6.00 Build 0)  -->
<svg version="1.1" id="Слой_1" xmlns="http://www.w3.org/2000/svg" xmlns:xlink="http://www.w3.org/1999/xlink" x="0px" y="0px"
	 viewBox="0 0 3300 2000" style="enable-background:new 0 0 3300 2000;" xml:space="preserve">
<style type="text/css">
	.st0{fill:#95A6DB;}
	.st1{fill:#CFDAFF;}
	.st2{fill:#C4D2FF;}
	.st3{fill:#B8C9FF;}
	.st4{fill:#C2D1FF;}
	.st5{fill:#CFDBFF;}
	.st6{fill:#FFFFFF;}
	.st7{fill:#3F964F;}
	.st8{fill:#78A5FF;}
	.st9{fill:#9CC2FF;}
	.st10{fill:#6397FF;}
	.st11{fill:#2C2858;}
	.st12{fill:#AA62CC;}
	.st13{fill:#0E6A41;}
	.st14{fill:#D48FFF;}
	.st15{fill:#32186C;}
	.st16{fill:#0C5C38;}
	.st17{fill:#E62552;}
	.st18{fill:#E3EAFF;}
	.st19{fill:#F37A50;}
	.st20{fill:#DE623C;}
	.st21{fill:#201D40;}
	.st22{fill:#18161A;}
	.st23{fill:#062440;}
	.st24{fill:#D4DEFF;}
	.st25{fill:#768FDB;}
	.st26{fill:#494C7F;}
	.st27{fill:#C4204A;}
	.st28{fill:#4661B3;}
	.st29{fill:#55AB65;}
	.st30{fill:#F5A3B7;}
	.st31{fill:#8CBF95;}
	.st32{fill:#2BBF86;}
	.st33{fill:#FF5566;}
</style>
<g>
	<path class="st0" d="M3207,1949.1H376c-10,0-18.1-8.1-18.1-18.1l0,0c0-10,8.1-18.1,18.1-18.1h2831c10,0,18.1,8.1,18.1,18.1l0,0
		C3225.1,1941,3217,1949.1,3207,1949.1z"/>
	<g>
		<rect x="2617.2" y="491.2" class="st1" width="607.9" height="28.6"/>
		<rect x="2617.2" y="796.1" class="st1" width="607.9" height="28.6"/>
		<rect x="2617.2" y="1101" class="st1" width="607.9" height="813"/>
		<g>
			<path class="st2" d="M3186.8,1879.3h-531.2v-733.8h531.2V1879.3z M2668.5,1866.3h505.2v-707.8h-505.2V1866.3z"/>
		</g>
		<rect x="3194.8" y="491.2" class="st1" width="30.2" height="624.1"/>
		<rect x="2617.2" y="491.2" class="st1" width="30.2" height="624.1"/>
		<rect x="2913.8" y="1158.5" class="st2" width="14.6" height="707.8"/>
		
			<ellipse transform="matrix(0.1602 -0.9871 0.9871 0.1602 953.4487 4237.4629)" class="st2" cx="2967" cy="1558.4" rx="19.1" ry="19.1"/>
		
			<ellipse transform="matrix(0.7071 -0.7071 0.7071 0.7071 -259.9188 2489.3186)" class="st2" cx="2874.9" cy="1558.4" rx="19.1" ry="19.1"/>
		<path class="st2" d="M3164.8,966.2h-34v-13.5h2c2.6,0,4.8-2.1,4.8-4.8v-2.8c0-2.6-2.1-4.8-4.8-4.8h-27c-2.6,0-4.8,2.1-4.8,4.8v2.8
			c0,2.6,2.1,4.8,4.8,4.8h2.2v13.5h-25.4v-13.5h2c2.6,0,4.8-2.1,4.8-4.8v-2.8c0-2.6-2.1-4.8-4.8-4.8h-27c-2.6,0-4.8,2.1-4.8,4.8v2.8
			c0,2.6,2.1,4.8,4.8,4.8h2.2v13.5h-25.4v-13.5h2c2.6,0,4.8-2.1,4.8-4.8v-2.8c0-2.6-2.1-4.8-4.8-4.8h-27c-2.6,0-4.8,2.1-4.8,4.8v2.8
			c0,2.6,2.1,4.8,4.8,4.8h2.2v13.5h-39c-1.3,0-2.4,1.1-2.4,2.4c0,1.3,1.1,2.4,2.4,2.4h10.8v122h-6.3c-2.5,0-4.5,2-4.5,4.5
			s2,4.5,4.5,4.5h183.2c2.5,0,4.5-2,4.5-4.5s-2-4.5-4.5-4.5h-6.3v-122h10.8c1.3,0,2.4-1.1,2.4-2.4
			C3167.2,967.2,3166.1,966.2,3164.8,966.2z M3149.8,1092.9h-162.2v-122h24.1v102.6c0,6.3,5.1,11.4,11.4,11.4s11.4-5.1,11.4-11.4
			V970.9h25.4v102.6c0,6.3,5.1,11.4,11.4,11.4s11.4-5.1,11.4-11.4V970.9h25.4v102.6c0,6.3,5.1,11.4,11.4,11.4s11.4-5.1,11.4-11.4
			V970.9h19V1092.9z"/>
		<path class="st3" d="M2872.6,660.5h-34V647h2c2.6,0,4.8-2.1,4.8-4.8v-2.8c0-2.6-2.1-4.8-4.8-4.8h-27c-2.6,0-4.8,2.1-4.8,4.8v2.8
			c0,2.6,2.1,4.8,4.8,4.8h2.2v13.5h-25.4V647h2c2.6,0,4.8-2.1,4.8-4.8v-2.8c0-2.6-2.1-4.8-4.8-4.8h-27c-2.6,0-4.8,2.1-4.8,4.8v2.8
			c0,2.6,2.1,4.8,4.8,4.8h2.2v13.5h-25.4V647h2c2.6,0,4.8-2.1,4.8-4.8v-2.8c0-2.6-2.1-4.8-4.8-4.8h-27c-2.6,0-4.8,2.1-4.8,4.8v2.8
			c0,2.6,2.1,4.8,4.8,4.8h2.2v13.5h-39c-1.3,0-2.4,1.1-2.4,2.4c0,1.3,1.1,2.4,2.4,2.4h10.8v122h-6.3c-2.5,0-4.5,2-4.5,4.5
			c0,2.5,2,4.5,4.5,4.5h183.2c2.5,0,4.5-2,4.5-4.5c0-2.5-2-4.5-4.5-4.5h-6.3v-122h10.8c1.3,0,2.4-1.1,2.4-2.4
			C2875,661.6,2873.9,660.5,2872.6,660.5z M2857.6,787.2h-162.2v-122h24.1v102.6c0,6.3,5.1,11.4,11.4,11.4s11.4-5.1,11.4-11.4V665.2
			h25.4v102.6c0,6.3,5.1,11.4,11.4,11.4s11.4-5.1,11.4-11.4V665.2h25.4v102.6c0,6.3,5.1,11.4,11.4,11.4s11.4-5.1,11.4-11.4V665.2h19
			V787.2z"/>
		<path class="st3" d="M3108.6,782.2l-43.8-72.7v-26.3c2.1,0,3.9-1.7,3.9-3.9v-0.7c0-2.1-1.7-3.9-3.9-3.9h-23.3
			c-2.1,0-3.9,1.7-3.9,3.9v0.7c0,2.1,1.7,3.9,3.9,3.9v26.3l-43.8,72.7c-3.7,6.1,0.7,13.9,7.9,13.9h47.6h47.6
			C3107.8,796.1,3112.2,788.4,3108.6,782.2z"/>
		<path class="st2" d="M3041,781.8l-44.5-75.1v-56.5c2.2,0,3.9-1.8,3.9-3.9v-0.8c0-2.2-1.8-3.9-3.9-3.9h-23.7
			c-2.2,0-3.9,1.8-3.9,3.9v0.8c0,2.2,1.8,3.9,3.9,3.9v56.5l-44.5,75.1c-3.7,6.3,0.8,14.3,8,14.3h48.3h48.3
			C3040.2,796.1,3044.7,788.1,3041,781.8z"/>
		<path class="st2" d="M3188,778.2l-49-93.7v-70.5c2.4,0,4.3-1.9,4.3-4.3v-2.2c0-2.4-1.9-4.3-4.3-4.3H3113c-2.4,0-4.3,1.9-4.3,4.3
			v2.2c0,2.4,1.9,4.3,4.3,4.3v70.5l-49,93.7c-4.1,7.9,0.8,17.9,8.9,17.9h53.1h53.1C3187.2,796.1,3192.1,786.1,3188,778.2z"/>
	</g>
	<g>
		<rect x="2068.9" y="769.5" class="st1" width="554.6" height="22.8"/>
		<rect x="2068.9" y="1012.7" class="st1" width="554.6" height="22.8"/>
		<rect x="2235.1" y="842.3" class="st4" width="44.2" height="170.3"/>
		<rect x="2278.6" y="855.9" class="st5" width="32" height="156.7"/>
		<rect x="2203.1" y="873.4" class="st5" width="32" height="139.1"/>
		<rect x="2172" y="861.5" class="st5" width="32" height="151.1"/>
		
			<rect x="2116.8" y="864.7" transform="matrix(0.8937 0.4486 -0.4486 0.8937 647.9057 -854.5538)" class="st5" width="21.6" height="151.1"/>
		<g>
			<rect x="2103.9" y="624" class="st4" width="37.8" height="145.6"/>
			<rect x="2141.1" y="635.6" class="st4" width="27.4" height="134"/>
			
				<rect x="2310.3" y="624" transform="matrix(-1 -1.224647e-16 1.224647e-16 -1 4658.4121 1393.6161)" class="st4" width="37.8" height="145.6"/>
			
				<rect x="2485" y="624" transform="matrix(-1 -1.224647e-16 1.224647e-16 -1 5007.749 1393.6161)" class="st4" width="37.8" height="145.6"/>
			
				<rect x="2567.5" y="624.1" transform="matrix(-0.941 -0.3383 0.3383 -0.941 4771.9497 2225.4858)" class="st4" width="24.9" height="145.6"/>
			
				<rect x="2419.3" y="657.7" transform="matrix(-1 -1.224647e-16 1.224647e-16 -1 4866.4121 1427.3075)" class="st4" width="27.8" height="111.9"/>
			
				<rect x="2401.9" y="630.3" transform="matrix(-1 -1.224647e-16 1.224647e-16 -1 4821.3867 1399.9247)" class="st5" width="17.5" height="139.3"/>
			
				<rect x="2283.5" y="635.6" transform="matrix(-1 -1.224647e-16 1.224647e-16 -1 4594.4502 1405.2455)" class="st5" width="27.4" height="134"/>
			
				<rect x="2348.1" y="650.6" transform="matrix(-1 -1.224647e-16 1.224647e-16 -1 4723.5391 1420.2225)" class="st5" width="27.4" height="119"/>
			
				<rect x="2374.8" y="640.4" transform="matrix(-1 -1.224647e-16 1.224647e-16 -1 4776.876 1410.0272)" class="st5" width="27.4" height="129.2"/>
			
				<rect x="2447.1" y="608.5" transform="matrix(-1 -1.224647e-16 1.224647e-16 -1 4932.1865 1378.1239)" class="st5" width="38.1" height="161.1"/>
			
				<rect x="2185.9" y="635.2" transform="matrix(0.9601 -0.2795 0.2795 0.9601 -108.7072 642.0446)" class="st4" width="22.1" height="134"/>
		</g>
	</g>
	<g>
		<g>
			<g>
				
					<rect x="73.3" y="1020.5" transform="matrix(0.8442 -0.5361 0.5361 0.8442 -525.216 239.6042)" class="st6" width="152.6" height="5.5"/>
				
					<rect x="94.8" y="1045.8" transform="matrix(0.8443 -0.5359 0.5359 0.8443 -535.5879 253.9018)" class="st6" width="148.6" height="5.5"/>
				
					<rect x="123.9" y="1074.7" transform="matrix(0.8442 -0.5361 0.5361 0.8442 -548.9379 266.4615)" class="st6" width="120" height="5.5"/>
				
					<rect x="166.8" y="1101" transform="matrix(0.8443 -0.5359 0.5359 0.8443 -560.0761 280.003)" class="st6" width="69.9" height="5.5"/>
				
					<rect x="193.8" y="1156" transform="matrix(0.8442 -0.5361 0.5361 0.8442 -584.4316 306.8254)" class="st6" width="83.5" height="5.5"/>
				
					<rect x="186.3" y="1183" transform="matrix(0.8442 -0.5361 0.5361 0.8442 -596.2729 320.2679)" class="st6" width="132.9" height="5.5"/>
				
					<rect x="193.6" y="1210.2" transform="matrix(0.8442 -0.5361 0.5361 0.8442 -608.1509 333.6802)" class="st6" width="152.6" height="5.5"/>
				
					<rect x="210.8" y="1237.3" transform="matrix(0.8442 -0.5361 0.5361 0.8442 -619.9897 347.1202)" class="st6" width="152.6" height="5.5"/>
				
					<rect x="232.5" y="1264.4" transform="matrix(0.8442 -0.5361 0.5361 0.8442 -631.844 360.5758)" class="st6" width="143.6" height="5.5"/>
				
					<rect x="269.4" y="1291.4" transform="matrix(0.8442 -0.5361 0.5361 0.8442 -643.6682 374.0347)" class="st6" width="104.3" height="5.5"/>
				
					<rect x="320.8" y="1317.8" transform="matrix(0.8443 -0.5359 0.5359 0.8443 -654.823 387.5388)" class="st6" width="37.2" height="5.5"/>
				
					<rect x="333.3" y="1344.9" transform="matrix(0.8443 -0.5359 0.5359 0.8443 -666.6936 401.006)" class="st6" width="46.7" height="5.5"/>
				
					<rect x="320.1" y="1373.4" transform="matrix(0.8442 -0.5361 0.5361 0.8442 -679.7176 413.8832)" class="st6" width="103.9" height="5.5"/>
				
					<rect x="320.4" y="1399.8" transform="matrix(0.8442 -0.5361 0.5361 0.8442 -691.0511 427.7887)" class="st6" width="139.8" height="5.5"/>
				
					<rect x="331.2" y="1426.9" transform="matrix(0.8442 -0.5361 0.5361 0.8442 -702.8916 441.23)" class="st6" width="152.6" height="5.5"/>
			</g>
			<g>
				<path class="st7" d="M203.2,1118.1c-99.2-7.3-116.5-72.8-117.4-75.3c-0.3-4.7-4.4-8.2-9.1-7.9c-4.7,0.3-8.2,4.4-7.9,9.1
					c0.1,0.9,0.3,1.8,0.6,2.7c0.8,3.2,20.1,80.1,132.2,88.3c79,5.9,109.7,15.1,136.4,57.7l2.5,4c26.7,42.5,21.5,74.3-7.5,147.9
					c-41.2,104.3,19.2,155.3,21.9,157.5c2.8,2.2,6.7,2.5,9.7,0.6c0.8-0.5,1.5-1.1,2-1.9c2.8-3.6,2.3-8.7-1.1-11.7
					c-0.4-0.6-53.7-45.3-16.7-138.5c28.5-72.1,38.4-111.7,6.3-163l-2.5-4C320.8,1132,280.6,1123.9,203.2,1118.1z"/>
				<path class="st7" d="M230,1117.2c41.3-104.4-19.3-155.4-21.9-157.5c-3-3.6-8.3-4.2-11.9-1.2c-3.6,3-4.2,8.3-1.2,11.9
					c0.7,0.9,1.6,1.6,2.6,2.1c2.2,1.9,53.5,46,16.7,138.5c-28.5,72.2-38.4,111.8-6.3,163.1l2.5,4c32.2,51.3,72.1,59.6,149.5,65.3
					c99.1,7.4,116.4,72.6,117.4,75.4c1.2,4.4,5.6,7.1,10.1,6.1c0.9-0.2,1.8-0.5,2.6-1c3-1.9,4.5-5.5,3.7-9
					c-0.8-3.3-20.1-80.1-132.2-88.3c-79.1-5.9-109.7-15.2-136.4-57.7l-2.5-4C195.6,1222.6,200.8,1190.9,230,1117.2z"/>
			</g>
		</g>
		<path class="st8" d="M2030.6,376.2v765c0,33.3-27,60.3-60.3,60.3H336.9c-33.3,0-60.3-27-60.3-60.3v-765c0-33.3,27-60.3,60.3-60.3
			h1633.4C2003.6,315.9,2030.6,342.9,2030.6,376.2z"/>
		<g>
			<path class="st9" d="M1729.7,965.9h-37.5v-68.2c0-10.4,8.4-18.8,18.8-18.8l0,0c10.4,0,18.8,8.4,18.8,18.8V965.9z"/>
			<path class="st9" d="M1832.3,965.9h-37.5V856.3c0-10.4,8.4-18.8,18.8-18.8l0,0c10.4,0,18.8,8.4,18.8,18.8V965.9z"/>
			<path class="st9" d="M1782.2,965.9h-37.5V813.7c0-10.4,8.4-18.8,18.8-18.8l0,0c10.4,0,18.8,8.4,18.8,18.8V965.9z"/>
			<path class="st9" d="M1891,965.9h-37.1v-202c0-10.3,8.3-18.6,18.6-18.6l0,0c10.3,0,18.6,8.3,18.6,18.6V965.9z"/>
			<path class="st9" d="M1954,965.9h-37.1V711.4c0-10.3,8.3-18.6,18.6-18.6l0,0c10.3,0,18.6,8.3,18.6,18.6V965.9z"/>
			<g>
				<g>
					<path class="st9" d="M1675,823.6c-1.7,0-3.4-0.7-4.6-2.2c-2.1-2.6-1.8-6.3,0.8-8.5l85.2-70.6c2.2-1.8,5.4-1.8,7.6-0.1
						l37.6,30.3l100.8-110.3c2.2-2.4,6-2.6,8.5-0.4c2.4,2.2,2.6,6,0.4,8.5l-104.6,114.5c-2.1,2.3-5.7,2.6-8.2,0.6l-38.2-30.8
						l-81.4,67.5C1677.8,823.2,1676.4,823.6,1675,823.6z"/>
				</g>
				<g>
					<g>
						<polygon class="st9" points="1911.9,693.8 1901.8,671.9 1879.1,663.9 1931,640 						"/>
					</g>
				</g>
			</g>
		</g>
		<g>
			<path class="st6" d="M1479.8,747.4H892.4c-12.3,0-22.3-10-22.3-22.3V392.7c0-12.3,10-22.3,22.3-22.3h587.4
				c12.3,0,22.3,10,22.3,22.3v332.4C1502.1,737.4,1492.1,747.4,1479.8,747.4z"/>
			<g>
				<path class="st9" d="M1476.6,753.5h-61.4c-4.4,0-8-2.7-8-6.1c0-3.4,3.6-6.1,8-6.1h61.4c4.4,0,8.1,2.7,8.1,6.1
					c0,3.4-3.5,6.1-7.9,6.1C1476.7,753.5,1476.6,753.5,1476.6,753.5z M1353.8,753.5h-61.4c-4.4,0-8-2.7-8-6.1c0-3.4,3.6-6.1,8-6.1
					h61.4c4.4,0,8,2.7,8,6.1C1361.9,750.7,1358.3,753.5,1353.8,753.5z M1231.1,753.5h-61.4c-4.4,0-8-2.7-8-6.1c0-3.4,3.6-6.1,8-6.1
					h61.4c4.4,0,8,2.7,8,6.1C1239.1,750.7,1235.5,753.5,1231.1,753.5z M1108.4,753.5H1047c-4.4,0-8-2.7-8-6.1c0-3.4,3.6-6.1,8-6.1
					h61.4c4.4,0,8,2.7,8,6.1C1116.4,750.7,1112.8,753.5,1108.4,753.5z M985.7,753.5h-61.4c-4.4,0-8-2.7-8-6.1c0-3.4,3.6-6.1,8-6.1
					h61.4c4.4,0,8,2.7,8,6.1C993.7,750.7,990.1,753.5,985.7,753.5z M871.2,739.5c-3.5,0-6.6-1.7-7.7-4.4c-0.9-2.3-1.4-4.8-1.4-7.3
					v-41.2c0-3.4,3.6-6.1,8-6.1s8,2.7,8,6.1v41.2c0,1.3,0.2,2.6,0.7,3.8c1.3,3.2-1.2,6.6-5.4,7.6
					C872.7,739.5,871.9,739.5,871.2,739.5z M1502.1,717.7c-4.4,0-8-2.7-8-6.1v-46.8c0-3.4,3.6-6.1,8-6.1c4.4,0,8,2.7,8,6.1v46.8
					C1510.1,715,1506.5,717.7,1502.1,717.7z M870.2,646.1c-4.4,0-8-2.7-8-6.1v-46.8c0-3.4,3.6-6.1,8-6.1s8,2.7,8,6.1V640
					C878.2,643.3,874.6,646.1,870.2,646.1z M1502.1,624.2c-4.4,0-8-2.7-8-6.1v-46.8c0-3.4,3.6-6.1,8-6.1c4.4,0,8,2.7,8,6.1v46.8
					C1510.1,621.4,1506.5,624.2,1502.1,624.2z M870.2,552.5c-4.4,0-8-2.7-8-6.1v-46.8c0-3.4,3.6-6.1,8-6.1s8,2.7,8,6.1v46.8
					C878.2,549.8,874.6,552.5,870.2,552.5z M1502.1,530.6c-4.4,0-8-2.7-8-6.1v-46.8c0-3.4,3.6-6.1,8-6.1c4.4,0,8,2.7,8,6.1v46.8
					C1510.1,527.9,1506.5,530.6,1502.1,530.6z M870.2,459c-4.4,0-8-2.7-8-6.1v-46.8c0-3.4,3.6-6.1,8-6.1s8,2.7,8,6.1v46.8
					C878.2,456.2,874.6,459,870.2,459z M1502.1,437.1c-4.4,0-8-2.7-8-6.1v-41.1c0-1.3-0.2-2.6-0.7-3.8c-1.3-3.2,1.2-6.6,5.4-7.6
					c4.2-1,8.7,0.9,10,4.1c0.9,2.4,1.4,4.8,1.4,7.3V431C1510.1,434.3,1506.5,437.1,1502.1,437.1z M1447.9,376.5h-61.4
					c-4.4,0-8-2.7-8-6.1c0-3.4,3.6-6.1,8-6.1h61.4c4.4,0,8,2.7,8,6.1C1455.9,373.7,1452.3,376.5,1447.9,376.5z M1325.2,376.5h-61.4
					c-4.4,0-8-2.7-8-6.1c0-3.4,3.6-6.1,8-6.1h61.4c4.4,0,8,2.7,8,6.1C1333.2,373.7,1329.6,376.5,1325.2,376.5z M1202.5,376.5h-61.4
					c-4.4,0-8-2.7-8-6.1c0-3.4,3.6-6.1,8-6.1h61.4c4.4,0,8,2.7,8,6.1C1210.5,373.7,1206.9,376.5,1202.5,376.5z M1079.7,376.5h-61.4
					c-4.4,0-8-2.7-8-6.1c0-3.4,3.6-6.1,8-6.1h61.4c4.4,0,8,2.7,8,6.1C1087.7,373.7,1084.2,376.5,1079.7,376.5z M957,376.5h-61.3
					c-4.4,0-8-2.7-8-6.1c0-3.4,3.6-6.1,8-6.1H957c4.4,0,8,2.7,8,6.1C965,373.7,961.4,376.5,957,376.5z"/>
			</g>
			<g>
				<g>
					<path class="st7" d="M1024.4,505.9c0,0,42.4-49.3,44.9-49.3c0,0,38.7-0.1,52-0.1l28.3,49.1l-31.7,55c-0.4,0.7-0.4,1.7,0,2.4
						l33.7,58.4c0.4,0.7,1.2,1.2,2.1,1.2h63.3l30.3,52.4c0.4,0.7,1.2,1.2,2.1,1.2h67.4c0.9,0,1.7-0.5,2.1-1.2l30.3-52.4h62.5
						c0.9,0,1.7-0.5,2.1-1.2l33.7-58.4c0.4-0.7,0.4-1.7,0-2.4l-30.4-52.6l38.8-48.3c2-2.6,1.6-6.3-0.9-8.4c-1.1-0.9-2.4-1.3-3.8-1.3
						c-1.8,0-3.5,0.8-4.7,2.2l-39.2,48.8h-63c-0.9,0-1.7,0.5-2.1,1.2l-30.3,52.4h-58.3l-30.3-52.4c-0.4-0.7-1.2-1.2-2.1-1.2h-60.3
						l-30.7-53.2c-1-1.9-3-3.2-5.3-3.2l-59.7,0.1l-49.7,53.6c-1.4,1.6-1.8,3.9-1,5.9c0.4,1,1,1.9,1.8,2.5
						C1018.5,508.8,1022.3,508.4,1024.4,505.9z M1406,610.6h-55.6l-28.6-49.5l27.8-48.2h56.4l28.2,48.8L1406,610.6z M1226.6,615.4
						l28.2-48.8h55.6L1339,616l-27.8,48.2h-56.4L1226.6,615.4z M1131,561.7l28.2-48.8h56.4l28.2,48.8l-28.2,48.8h-56.4L1131,561.7z"
						/>
					<path class="st7" d="M1218.6,551.6c1.1-1.8,3-3,5.2-3c1.1,0,2.1,0.3,3,0.8c2.8,1.6,3.8,5.3,2.2,8.2l-25.5,43.9
						c-1.1,1.8-3,3-5.2,3c-1.1,0-2.1-0.3-3-0.8c-2.8-1.6-3.8-5.3-2.2-8.2L1218.6,551.6z"/>
					<path class="st7" d="M1388.2,594.6l25.2-43.7c1.1-1.8,3.1-3,5.2-3c1,0,2.1,0.3,3,0.8c2.8,1.6,3.8,5.3,2.2,8.2l-25.2,43.7
						c-1.1,1.8-3.1,3-5.2,3c-1,0-2.1-0.3-3-0.8C1387.6,601.1,1386.6,597.5,1388.2,594.6z"/>
				</g>
				<g>
					<path class="st7" d="M945,525.8v-23.1c0-2.7,2.2-4.8,4.8-4.8c2.7,0,4.8,2.2,4.8,4.8v36.7c0,3.3-1.9,5-5,5
						c-1.8,0-3.8-1.3-5.8-3.8l-19-24v23c0,2.7-2.2,4.8-4.8,4.8c-2.7,0-4.8-2.2-4.8-4.8v-36.7c0-2.8,1.7-5,4.8-5
						c2.3,0,3.6,0.8,5.8,3.7L945,525.8z"/>
					<path class="st7" d="M993.2,502.7c0-2.7,2.3-4.8,5.2-4.8c2.9,0,5.2,2.2,5.2,4.8v36.9c0,2.7-2.3,4.8-5.2,4.8
						c-2.9,0-5.2-2.2-5.2-4.8v-14h-16.5v14c0,2.7-2.3,4.8-5.2,4.8c-2.9,0-5.2-2.2-5.2-4.8v-36.9c0-2.7,2.3-4.8,5.2-4.8
						c2.9,0,5.2,2.2,5.2,4.8v13.1h16.5V502.7z"/>
					<path class="st7" d="M1030.1,542c5.2,1.2,8.2,5.2,8.2,10.5c0,4.1-1.4,7.2-4.2,9.6c-2.8,2.4-6.4,3.6-10.7,3.6
						c-4.9,0-8.7-1.2-11.4-3.6c-2-1.7-2.4-4.7-0.9-6.6c1.7-2.2,4.4-2.2,6.4-0.9c1.8,1.2,3.6,1.8,5.3,1.8c3.6,0,5.5-1.8,5.5-4.2
						c0-3.2-1.9-4.9-5.8-4.9c-3,0-5.2-1.6-5.2-4.6c0-3.1,2.1-4.6,4.9-4.6c2.5,0,4.4-1.6,4.4-4.4c0-2.1-1.2-3.7-4-3.7
						c-1.6,0-3.1,0.4-4.4,1.1c-2.2,1.3-5,0.9-6.3-1.2c-0.9-1.4-1.3-4.3,1.3-6.3c2.6-1.9,6.1-2.9,10.3-2.9c3.9,0,7,1,9.5,3
						c2.4,2.1,3.6,4.7,3.6,8.2C1036.6,536.8,1034.5,540,1030.1,542z"/>
				</g>
			</g>
		</g>
		<g>
			<path class="st9" d="M680.6,780.5H326.3c-8.9,0-16.2-7.2-16.2-16.2V528.5c0-8.9,7.2-16.2,16.2-16.2h354.3
				c8.9,0,16.2,7.2,16.2,16.2v235.8C696.8,773.2,689.5,780.5,680.6,780.5z"/>
			<path class="st8" d="M621.9,602.9H348.6c-9.6,0-17.4-7.8-17.4-17.4v-5.7c0-9.6,7.8-17.4,17.4-17.4h273.2
				c9.6,0,17.4,7.8,17.4,17.4v5.7C639.3,595.1,631.5,602.9,621.9,602.9z"/>
			<path class="st8" d="M510.3,656.1H338c-3.7,0-6.8-3-6.8-6.8v-6.7c0-3.7,3-6.8,6.8-6.8h172.3c3.7,0,6.8,3,6.8,6.8v6.7
				C517.1,653.1,514.1,656.1,510.3,656.1z"/>
			<path class="st8" d="M458.1,737.6H336.9c-3.2,0-5.7-2.6-5.7-5.7v-8.8c0-3.2,2.6-5.7,5.7-5.7h121.2c3.2,0,5.7,2.6,5.7,5.7v8.8
				C463.9,735,461.3,737.6,458.1,737.6z"/>
			<path class="st8" d="M548.8,694.3H338.7c-4.1,0-7.4-3.3-7.4-7.4v-5.4c0-4.1,3.3-7.4,7.4-7.4h210.1c4.1,0,7.4,3.3,7.4,7.4v5.4
				C556.2,690.9,552.9,694.3,548.8,694.3z"/>
		</g>
		<g>
			<g>
				<path class="st10" d="M690.6,560.3c-2.9,0-5.9-0.2-8.9-0.5c-46.6-4.8-80.6-46.6-75.9-93.2c0.8-8.1,8.1-14,16.2-13.2
					c8.1,0.8,14,8.1,13.2,16.2c-3.1,30.4,19.1,57.7,49.5,60.8c14.7,1.5,29.2-2.8,40.7-12.1c11.5-9.3,18.6-22.6,20.2-37.3
					c3.1-30.4-19.1-57.7-49.5-60.8c-11-1.1-21.9,1-31.6,6.1c-7.2,3.8-16.2,1.1-20-6.1c-3.8-7.2-1.1-16.2,6.1-20
					c14.9-7.9,31.7-11.2,48.5-9.4c46.6,4.8,80.6,46.6,75.9,93.2c-2.3,22.6-13.3,42.9-30.9,57.2C728.8,553.7,710.1,560.3,690.6,560.3
					z"/>
			</g>
			<path class="st10" d="M717.3,475.3c0,14.8-12,26.8-26.8,26.8s-26.8-12-26.8-26.8c0-14.8,12-26.8,26.8-26.8
				S717.3,460.5,717.3,475.3z"/>
		</g>
		<g>
			<path class="st10" d="M1288.8,1017.5h-242.8c-9.8,0-17.7-7.9-17.7-17.7V820.6c0-9.8,7.9-17.7,17.7-17.7h242.8
				c9.8,0,17.7,7.9,17.7,17.7v179.2C1306.5,1009.6,1298.5,1017.5,1288.8,1017.5z"/>
			<path class="st9" d="M1192.7,1056.2H956.4c-9.5,0-17.2-7.7-17.2-17.2V864.7c0-9.5,7.7-17.2,17.2-17.2h236.3
				c9.5,0,17.2,7.7,17.2,17.2V1039C1209.9,1048.5,1202.2,1056.2,1192.7,1056.2z"/>
			<path class="st11" d="M970.1,890l-53.5-53.5H776.9c-1.9,0-3.5-1.6-3.5-3.5c0-1.9,1.6-3.5,3.5-3.5h142.6l55.5,55.5
				c1.4,1.4,1.4,3.6,0,5S971.5,891.4,970.1,890z"/>
			<path class="st11" d="M867.4,818.9h-91.2c-1.9,0-3.5-1.6-3.5-3.5c0-1.9,1.6-3.5,3.5-3.5h91.2c1.9,0,3.5,1.6,3.5,3.5
				C871,817.3,869.4,818.9,867.4,818.9z"/>
			<path class="st11" d="M932.2,1105.4l55.3-1.4l47.4-50c1.3-1.4,1.3-3.6-0.1-5c-0.7-0.7-1.6-1-2.5-1c-0.9,0-1.8,0.4-2.5,1.1
				l-45.4,47.8l-52.4,1.3c-1.9,0.1-3.5,1.7-3.4,3.6C928.6,1103.9,930.2,1105.4,932.2,1105.4z"/>
			<g>
				<path class="st12" d="M965.6,954.6c0,19.7,6.2,37.9,16.7,52.9l0.1-0.1C971.9,992.4,965.6,974.2,965.6,954.6z"/>
				<path class="st12" d="M1071.4,863.2c2.6,0.4,5.2,0.8,7.8,1.4C1076.6,864.1,1074,863.6,1071.4,863.2z"/>
				<path class="st12" d="M1028.3,1042c-0.5-0.2-1-0.3-1.5-0.5c2.5,0.9,5,1.7,7.5,2.3c-0.3-0.1-0.7-0.2-1-0.3
					C1031.6,1043.1,1030,1042.5,1028.3,1042z"/>
				<path class="st12" d="M1020.1,1038.7c-1.2-0.5-2.5-1-3.7-1.6c2.6,1.3,5.3,2.5,8,3.6c-0.4-0.2-0.8-0.4-1.2-0.5
					C1022.2,1039.7,1021.1,1039.2,1020.1,1038.7z"/>
				<path class="st12" d="M1092.1,868.7c3,1.2,6,2.5,8.9,4C1098.1,871.2,1095.1,869.9,1092.1,868.7z"/>
				<path class="st13" d="M1122.3,954.6h28.2c0-35.3-19.8-66-49-81.6l-13.2,24.9C1108.5,908.7,1122.3,930,1122.3,954.6z"/>
				<path class="st12" d="M1058.1,862.1c-51.1,0-92.4,41.4-92.4,92.4C965.6,903.9,1007.4,862.1,1058.1,862.1z"/>
				<path class="st12" d="M1082,865.4c2.6,0.7,5.1,1.5,7.6,2.4C1087.2,866.9,1084.6,866.1,1082,865.4z"/>
				<path class="st12" d="M1058.1,862.1c3.5,0,7.1,0.2,10.6,0.6C1065.2,862.4,1061.6,862.1,1058.1,862.1z"/>
				<path class="st12" d="M1015,1036.4c-3.1-1.6-6.1-3.4-9-5.4C1008.9,1032.9,1011.9,1034.7,1015,1036.4z"/>
				<path class="st12" d="M1005.4,1030.5c-2.6-1.8-5-3.7-7.4-5.7C1000.4,1026.8,1002.9,1028.8,1005.4,1030.5z"/>
				<path class="st12" d="M1058.1,1047c51.1,0,92.4-41.4,92.4-92.4C1150.5,1005.3,1108.8,1047,1058.1,1047z"/>
				<path class="st12" d="M1047.5,1046.4c3.5,0.4,7,0.6,10.5,0.6c-3.5,0-7-0.2-10.4-0.6C1047.6,1046.4,1047.6,1046.4,1047.5,1046.4z
					"/>
				<path class="st12" d="M1037.7,1044.7c-0.2,0-0.4-0.1-0.6-0.1c2.5,0.6,5.1,1.1,7.8,1.4c-0.2,0-0.4-0.1-0.7-0.1
					C1042,1045.5,1039.8,1045.2,1037.7,1044.7z"/>
				<path class="st12" d="M988.3,1015.1c-1.7-2-3.3-4-4.9-6.1C985,1011.1,986.6,1013.2,988.3,1015.1z"/>
				<path class="st12" d="M995.7,1022.7c-1.8-1.6-3.5-3.3-5.1-5C992.3,1019.4,993.9,1021.1,995.7,1022.7z"/>
				<path class="st14" d="M1089.6,867.8c0.8,0.3,1.6,0.6,2.5,0.9C1091.3,868.4,1090.5,868.1,1089.6,867.8z"/>
				<path class="st14" d="M1079.2,864.7c1,0.2,1.9,0.5,2.9,0.7C1081.1,865.1,1080.1,864.9,1079.2,864.7z"/>
				<path class="st14" d="M1101.5,873c-0.2-0.1-0.4-0.2-0.6-0.3C1101.1,872.8,1101.3,872.9,1101.5,873L1101.5,873z"/>
				<path class="st14" d="M1068.6,862.8c0.9,0.1,1.8,0.3,2.7,0.4C1070.5,863.1,1069.6,862.9,1068.6,862.8z"/>
				<path class="st14" d="M1028.3,1042c1.6,0.6,3.3,1.1,5,1.5C1031.6,1043.1,1030,1042.5,1028.3,1042z"/>
				<path class="st14" d="M1058.1,1047c-3.5,0-6.9-0.2-10.4-0.6C1051.1,1046.8,1054.6,1047,1058.1,1047z"/>
				<path class="st7" d="M1005.4,991.4c-38.6-54.3,24.2-125.2,82.8-93.5l13.2-24.9c-84.4-45.5-174.7,56.7-119,134.4L1005.4,991.4z"
					/>
				<path class="st14" d="M1020.1,1038.7c1,0.5,2.1,1,3.1,1.4C1022.2,1039.7,1021.1,1039.2,1020.1,1038.7z"/>
				<path class="st14" d="M1037.7,1044.7c2.1,0.5,4.3,0.9,6.5,1.2C1042,1045.5,1039.9,1045.2,1037.7,1044.7z"/>
				<path class="st15" d="M990.6,1017.7c-0.8-0.8-1.6-1.7-2.3-2.5C989.1,1016,989.8,1016.8,990.6,1017.7z"/>
				<path class="st15" d="M998,1024.8c-0.8-0.7-1.6-1.4-2.3-2.1C996.5,1023.4,997.2,1024.1,998,1024.8z"/>
				<path class="st15" d="M1006,1031c-0.2-0.1-0.4-0.3-0.5-0.4C1005.6,1030.7,1005.8,1030.8,1006,1031z"/>
				<path class="st15" d="M1047.5,1046.4c-0.9-0.1-1.8-0.3-2.7-0.4C1045.8,1046.1,1046.6,1046.3,1047.5,1046.4z"/>
				<path class="st15" d="M1016.4,1037c-0.5-0.2-0.9-0.4-1.4-0.7C1015.5,1036.6,1016,1036.8,1016.4,1037z"/>
				<path class="st15" d="M1037.1,1044.6c-0.9-0.2-1.8-0.5-2.8-0.7C1035.3,1044.1,1036.2,1044.3,1037.1,1044.6z"/>
				<path class="st15" d="M1026.8,1041.5c-0.8-0.3-1.6-0.6-2.4-0.9C1025.2,1040.9,1026,1041.2,1026.8,1041.5z"/>
				<path class="st15" d="M982.3,1007.5c0.4,0.5,0.8,1,1.2,1.5C983.1,1008.5,982.7,1008,982.3,1007.5L982.3,1007.5z"/>
				<path class="st15" d="M982.5,1007.4l-0.1,0.1c0.4,0.5,0.7,1,1.1,1.5c1.5,2.1,3.2,4.2,4.9,6.1c0.8,0.9,1.5,1.7,2.3,2.5
					c1.6,1.7,3.3,3.4,5.1,5c0.8,0.7,1.5,1.4,2.3,2.1c2.4,2,4.8,4,7.4,5.7c0.2,0.1,0.4,0.3,0.5,0.4c2.9,2,5.9,3.8,9,5.4
					c0.5,0.2,0.9,0.4,1.4,0.7c1.2,0.6,2.4,1.1,3.7,1.6C1005,1031.8,992,1020.9,982.5,1007.4z"/>
				<path class="st15" d="M1044.2,1045.9c0.2,0,0.4,0.1,0.7,0.1c0.9,0.1,1.8,0.3,2.7,0.4c0.1,0,0.1,0,0.2,0
					C1046.5,1046.3,1045.4,1046,1044.2,1045.9z"/>
				<path class="st15" d="M1023.2,1040.1c0.4,0.2,0.8,0.4,1.2,0.5c0.8,0.3,1.6,0.6,2.4,0.9c0.5,0.2,1,0.3,1.5,0.5
					C1026.6,1041.4,1024.9,1040.8,1023.2,1040.1z"/>
				<path class="st15" d="M1033.3,1043.5c0.3,0.1,0.7,0.2,1,0.3c0.9,0.2,1.8,0.5,2.8,0.7c0.2,0,0.4,0.1,0.6,0.1
					C1036.2,1044.3,1034.8,1043.9,1033.3,1043.5z"/>
				<path class="st16" d="M1150.5,954.6h-28.2c1.3,62-83.2,87.6-116.9,36.8l-23,16C1032.9,1081,1151,1043.7,1150.5,954.6z"/>
			</g>
		</g>
		<path class="st10" d="M2030.6,376.2v157h-459.5c-17.3,0-31.4-14-31.4-31.4v-186h430.6C2003.6,315.9,2030.6,342.9,2030.6,376.2z"/>
		<g>
			<path class="st9" d="M2143.2,232.2V483c0,17.3-14,31.3-31.3,31.3h-524.4c-17.3,0-31.3-14-31.3-31.3V232.2
				c0-17.3,14-31.4,31.3-31.4h524.4C2129.2,200.9,2143.2,214.9,2143.2,232.2z"/>
			<path class="st8" d="M2143.2,232.2v46.3h-587.1v-46.3c0-17.3,14-31.4,31.3-31.4h524.4C2129.2,200.9,2143.2,214.9,2143.2,232.2z"
				/>
			<circle class="st17" cx="1610.8" cy="242" r="25.1"/>
			<path class="st9" d="M1707.1,242c0,13.9-11.2,25.1-25.1,25.1c-13.9,0-25.1-11.2-25.1-25.1c0-13.9,11.2-25.1,25.1-25.1
				C1695.9,216.9,1707.1,228.2,1707.1,242z"/>
			<path class="st9" d="M1778.4,242c0,13.9-11.2,25.1-25.1,25.1c-13.9,0-25.1-11.2-25.1-25.1c0-13.9,11.2-25.1,25.1-25.1
				C1767.2,216.9,1778.4,228.2,1778.4,242z"/>
			<path class="st18" d="M1706.4,444.4h-90.8c-8,0-14.4-6.5-14.4-14.4v-90.8c0-8,6.5-14.4,14.4-14.4h90.8c8,0,14.4,6.5,14.4,14.4
				v90.8C1720.8,437.9,1714.3,444.4,1706.4,444.4z"/>
			<path class="st18" d="M1890.6,444.4h-90.8c-8,0-14.4-6.5-14.4-14.4v-90.8c0-8,6.5-14.4,14.4-14.4h90.8c8,0,14.4,6.5,14.4,14.4
				v90.8C1905,437.9,1898.5,444.4,1890.6,444.4z"/>
			<path class="st18" d="M2074.8,444.4H1984c-8,0-14.4-6.5-14.4-14.4v-90.8c0-8,6.5-14.4,14.4-14.4h90.8c8,0,14.4,6.5,14.4,14.4
				v90.8C2089.2,437.9,2082.8,444.4,2074.8,444.4z"/>
		</g>
	</g>
	<g>
		<path class="st1" d="M1574.4,1025.6l60.8-26.7c5.1,6.6,75.3,25.4,105.5,169c6.3,30-44.4,111.5-75.6,136.4
			c-31.3,24.9-48.3-29.4-48.3-29.4l43.9-101.8L1574.4,1025.6z"/>
		<path d="M1518.6,1842.4c-30.4,42.7-105,16.5-102.5,74.3c113.4-0.7,160.6,0,160.6,0c-0.1-13.3-2.4-44.8-5-57.1L1518.6,1842.4z"/>
		<path d="M1694.6,1842.4c-30.4,42.7-105,16.5-102.5,74.3c113.4-0.7,160.6,0,160.6,0c-0.1-13.3-2.4-44.8-5-57.1L1694.6,1842.4z"/>
		<g>
			<g>
				<polygon class="st19" points="1581.1,999.7 1518.5,994.6 1512.4,933 1567.6,903.6 				"/>
				<path class="st19" d="M1516,806.2c-33.3,0-58.7,30.5-64.6,63.2c-10.8,59.2,24.2,97.4,33.5,100.6c17.4,6,55.2-12.9,55.2-12.9
					s43.4-39.5,43.4-64.2C1583.4,859.7,1549.2,806.2,1516,806.2z"/>
			</g>
			<path class="st11" d="M1618.3,862.9c15.6-24,4.3-39.6-16.9-47.7c-21.2-8.1-23.6-18.5-32.4-32.5c-8.3-13.3-46.7-27.4-64.3-6.8
				c-26.3,30.7-31.7,5.4-54.6,28.3c-20.7,20.7-15.7,45.8-6.7,57.4c8.7,11.3,29.6-8.9,28.2,5.9c-1.1,11.5,15.9,11.8,21.4,23.7
				c4.2,8.9,11.6,12.7,10.4,18.3c-2.3,11-10.7,27.1,11.6,42.6c12.7,8.8,19.9-4,34.1,4.4c27,16,36.5-3.3,51.2-19.1
				c14.7-15.9,33.6-15,18.3-41.6C1618,894.7,1606.7,880.7,1618.3,862.9z"/>
			<g>
				<path class="st19" d="M1487.7,885.1c-5.9,8.5-5,19.3,2,24.1c7,4.8,17.4,1.8,23.3-6.7c5.9-8.5,5-19.3-2-24.1
					C1504,873.6,1493.6,876.6,1487.7,885.1z"/>
				<g>
					<path class="st20" d="M1498.6,904.4c-0.3-0.1-0.7-0.2-1-0.4c-4.2-3-5.9-7.4-4.5-11.7c1.5-4.4,5.7-7.6,10.2-7.5
						c1.2,0,2.2,1,2.2,2.3c0,1.2-1,2.2-2.3,2.2c-2.4,0-5,1.9-5.8,4.4c-0.8,2.4,0.2,4.8,2.9,6.6c1,0.7,1.2,2.1,0.5,3.2
						C1500.3,904.2,1499.4,904.5,1498.6,904.4z"/>
				</g>
			</g>
		</g>
		<path class="st21" d="M1650.2,1365.7c0,0,29.3,146.6,48,250.6c19.4,32.5,58.6,196.1,58.3,247.2l-84.7-6.1
			c0,0-51.5-151.5-64.2-199.8c-15.8-60.2-51.9-144.4-67.8-265.5l-3.8-33.8L1650.2,1365.7z"/>
		<path class="st11" d="M1473.3,1404.1l104.6,4.2l-11.7,214.7c11.6,35.3,25.7,193.8,14,243l-87.6-6.3
			C1492.6,1859.8,1444.9,1548.3,1473.3,1404.1z"/>
		<g>
			<path class="st6" d="M1476.8,987.5c0,0,144.1-2.9,162.2,14c67.1,63.2,16.5,262.3,80.9,564c-19.3-6.7-85.2-53.8-166-18.4
				c-53.8,23.6-90.6,33.1-138.3,16.1c-21.9-187.9,39.5-439,39.5-439L1476.8,987.5z"/>
		</g>
		<g>
			<g>
				<g>
					<g>
						<g>
							<path class="st19" d="M1205.7,1045.9c9.3,0.6,20.8-4,24.4,4.3l18.4-9l1.1-11.1c-15.8-25.3-54.3-32.5-58.1-32.8
								c-9.9-0.9-14.5-1.9-15.3-0.6c-0.8,1.3-3.2,10.1,11.2,11.9c18,2.2,6.1,16.6-30.5,2.9c-9.2-3.4-26.4,1-20.2,7.7
								C1143.6,1026.6,1163.3,1043.3,1205.7,1045.9z"/>
						</g>
					</g>
				</g>
			</g>
			<path class="st6" d="M1223.1,1050.3c4,27.8,48.2,154.6,85.1,170.8c21.1-15.7,27.2-51.2,21.1-76.2
				c-11.3-46.7-79.7-114.8-79.7-114.8L1223.1,1050.3z"/>
			<path class="st6" d="M1477.6,987.7c0,0,40.8,16.6,19.4,69.9c-21.3,53.3-128,191.4-190.8,162.5
				C1268.8,1147.9,1445.8,985.5,1477.6,987.7z"/>
		</g>
		<path class="st6" d="M1499.2,988.6c11-8.6,45.8-23.5,85.4-19.5c4.6,8.6,4.4,22.4,4.4,22.4L1499.2,988.6z"/>
	</g>
	<g>
		<path class="st19" d="M860.3,883c-6.8,8.1-12.1,17.8-26.2,17.6c0,0-12.1,31.7-24.7,56.5c0,0-14.2-45.1-14.2-45.1
			c6.2-9.5,16.2-28.3,19.5-40c0.9-3,1.6-6.1,2.4-9.2c1.9-7.5,3.2-15.3,11-22c12.8-11,27.3-32.1,30.2-32.6c5.2-1.2,3.3,14.1-4.6,21.7
			c-12.7,12.2-8.3,17.6-8.3,17.6s13.4,3.2,15.8,9.5C862.4,859.9,868.3,873.5,860.3,883z"/>
		<path class="st19" d="M646,1581.2l-71.7,2.7c0,0-13.5,56.3-17.3,104.6c-3.1,39.8,10.4,105.1,10.3,157c0,9.6-6.7,24.7-7.8,31.9
			c-4.1,26.2,71.7,12.8,71.7,12.8c-4.7-2.4-24.8-29.1-25.5-38.3c-2.2-30.2,10.4-101.7,22.7-163.5
			C639.4,1633.5,646,1581.2,646,1581.2z"/>
		<path class="st19" d="M441.6,1550.9c0,0-14.6,89-18.4,137.3c-3.1,39.8,5.8,98.3,5.8,150.1c0,9.6-6.7,24.7-7.8,31.9
			c-4.1,26.2,11.3,7.1,18.6,14.3c7.3,7.3,17.7,2.8,17.7,2.8l39.2,0.8c0,0-1.5-2.1-9.8-5.3c-3.9-2.2-19.2-29-19.4-38.2
			c-3-108.7,91.6-283.9,91.6-283.9L441.6,1550.9z"/>
		<path class="st22" d="M464.1,1883.7c-14.9,1.4-24.7-8.4-36.6-16c0.5,8.9-0.1,12.5-0.1,21.4c6.2,4.2,10.5,9.2,12.7,12.2
			c1.3,1.8,3.3,2.9,5.4,3l34,2.7C479.7,1907,468.9,1883.2,464.1,1883.7z"/>
		<path class="st17" d="M486,1882.4c0,0-0.9,1.5-3.6,0.7c-8.2-2.5-18.3-10.8-29.2-18.4c-8.2-5.8-19.2-14.8-26.3-13.9
			c-5.1,0.6-13.5,13.1-12.1,25.1c0.6,5,2.1,8.9,7,14.8c5,5.9,7.9,25.6,7.9,25.6l5.8-0.2c0,0,0-34.7,18.3-26.8
			c13.2,5.7,16.2,20.3,27.9,17.5c9.6-3.1,21.1-9.1,19.1-16C499.8,1886.7,495.9,1885.4,486,1882.4z"/>
		<path class="st22" d="M602.5,1890.8c-14.9,1.4-24.7-8.4-36.6-16c0.5,8.9-0.1,12.5-0.1,21.4c6.2,4.2,10.5,9.2,12.7,12.2
			c1.3,1.8,3.3,2.9,5.4,3l37,2.2C621.1,1913.6,607.3,1890.3,602.5,1890.8z"/>
		<path class="st17" d="M638.9,1892.9c-6.4-2.1-7.9-2.9-7.9-2.9c-9.1,3-26.6-9.3-39.4-18.3c-8.2-5.8-19.5-15-26.6-14.1
			c-5.1,0.6-12.5,17.2-13.6,24.8c-0.7,5,1.1,10.2,3.9,17.2c4.3,10.5,9.3,23.9,9.3,23.9l5.8-0.2c0,0,0-34.7,18.3-26.8
			c13.2,5.7,14.9,16.9,31.5,17.1C637.8,1914,665.6,1901.9,638.9,1892.9z"/>
		<path class="st19" d="M577.6,847.3c-9.5-19-23.3-26.3-23.3-26.3l-2.4-0.8l-100.7,22.1c0,0,38.3,77.3,40.3,79.3
			c1.9,1.9,60.5,57.9,60.5,57.9s29.1,7.3,40.1-17.3C612.2,917.5,587.1,866.3,577.6,847.3z"/>
		<path class="st1" d="M492.3,1080.5l-67.2,9.7c-2.3,5.8-31.4,106.2-24.5,128.3c7,22.1,55.4,72,83.3,83.7
			c27.9,11.6,29.1-31.4,29.1-31.4l-53-65.1L492.3,1080.5z"/>
		<path class="st6" d="M709,1335c-13.2-81.7-34.9-120.9-34.9-120.9c-6.2-42-9.6-117.3-21.7-143.4l-77.3-75.4l-116.8,13
			c0,0,28.3,252.4,28.7,252.8c-41.2,71.2-58,143.1-73.1,185.8c-22.7,64.5-75.9,126.9-75.9,126.9c51.9-20.8,123,47.2,182.3,54.6
			c59.3,7.4,103.5-3.1,127.1-6.6c37.5-5.6,62.8,21.8,62.8,21.8C713.2,1638.5,728.5,1455.7,709,1335z"/>
		<path class="st6" d="M801.1,878.9l-79,130.7c0,0-85.8-15.4-110.2-17.1c-33.4-2.4-40.2,5-40.2,5s6.8,98.7,60.3,101.3
			c-3.9-8.3,100.5-13.3,130.9-33c30.4-19.8,75.1-144.5,74.6-146.4C805.9,899,801.1,878.9,801.1,878.9z"/>
		<path class="st23" d="M538.2,799c-28.8,5.4-68.4-26.6-108.6,6.7c-52.6,43.7-10.5,97.3-48.4,129.3
			c-32.5,27.5-154.2,79.6-79.2,143.9c-29.1,9.2-46.7,88.8,36,88.1c-6.9,23.7,39.8,76.6,113.3,16.8c39.1,58.2,105.7-26,104.1-81.9
			c-0.5-19.3-7.7-43.6-16.1-65.1c55.9,29.9,39.8-91.1,23.5-148.6C579.2,886,625.9,782.6,538.2,799z"/>
	</g>
	<path class="st6" d="M113.1,1634.5c10.5-20.1,35.3-28,55.4-17.6c20.1,10.5,28,35.3,17.6,55.4c-10.5,20.1-35.3,28-55.4,17.6
		C110.5,1679.5,102.6,1654.7,113.1,1634.5z"/>
	<path class="st6" d="M209.2,1582.7c5.8-11.2,19.5-15.5,30.7-9.7c11.2,5.8,15.5,19.5,9.7,30.7c-5.8,11.2-19.5,15.5-30.7,9.7
		C207.8,1607.6,203.4,1593.9,209.2,1582.7z"/>
	<path class="st6" d="M2882.2,572.2c5.8-11.2,19.5-15.5,30.7-9.7c11.2,5.8,15.5,19.5,9.7,30.7c-5.8,11.2-19.5,15.5-30.7,9.7
		C2880.7,597.1,2876.4,583.3,2882.2,572.2z"/>
	<path class="st6" d="M453,366c5.8-11.2,19.5-15.5,30.7-9.7c11.2,5.8,15.5,19.5,9.7,30.7c-5.8,11.2-19.5,15.5-30.7,9.7
		C451.5,390.9,447.2,377.2,453,366z"/>
	<path class="st6" d="M184.7,663.5c5.8-11.2,19.5-15.5,30.7-9.7c11.2,5.8,15.5,19.5,9.7,30.7c-5.8,11.2-19.5,15.5-30.7,9.7
		C183.3,688.5,178.9,674.7,184.7,663.5z"/>
	<path class="st6" d="M2538,268.1c5.8-11.2,19.5-15.5,30.7-9.7c11.2,5.8,15.5,19.5,9.7,30.7c-5.8,11.2-19.5,15.5-30.7,9.7
		C2536.6,293,2532.2,279.2,2538,268.1z"/>
	<path class="st6" d="M266.5,779.5c-15.5,4.9-32.2-3.7-37.1-19.2c-4.9-15.5,3.7-32.2,19.2-37.1c15.5-4.9,32.2,3.7,37.1,19.2
		C290.7,758,282,774.6,266.5,779.5L266.5,779.5z M271.8,796.2c24.7-7.8,38.4-34.2,30.6-59c-7.8-24.7-34.2-38.4-59-30.6
		c-24.7,7.8-38.4,34.2-30.6,59C220.6,790.3,247,804,271.8,796.2L271.8,796.2z"/>
	<path class="st6" d="M2128.6,1140.9c-10.2,3.2-21-2.4-24.2-12.6c-3.2-10.2,2.4-21,12.6-24.3c10.2-3.2,21,2.4,24.2,12.6
		C2144.4,1126.8,2138.8,1137.7,2128.6,1140.9L2128.6,1140.9z M2132.1,1151.8c16.2-5.1,25.1-22.4,20-38.6
		c-5.1-16.2-22.4-25.1-38.6-20c-16.2,5.1-25.1,22.4-20,38.6C2098.6,1147.9,2115.9,1156.9,2132.1,1151.8L2132.1,1151.8z"/>
	<path class="st6" d="M1167.6,1649.3c-10.2,3.2-21-2.4-24.2-12.6c-3.2-10.2,2.4-21,12.6-24.2c10.2-3.2,21,2.4,24.2,12.6
		C1183.4,1635.2,1177.7,1646,1167.6,1649.3L1167.6,1649.3z M1171,1660.1c16.2-5.1,25.1-22.4,20-38.6c-5.1-16.2-22.4-25.1-38.6-20
		s-25.1,22.4-20,38.6C1137.6,1656.3,1154.8,1665.3,1171,1660.1L1171,1660.1z"/>
	<path class="st6" d="M2489.9,406.4c-15.1,4.8-31.3-3.6-36.1-18.7c-4.8-15.1,3.6-31.3,18.7-36.1c15.1-4.8,31.3,3.6,36.1,18.7
		C2513.4,385.4,2505,401.6,2489.9,406.4L2489.9,406.4z M2495,422.6c24.1-7.6,37.4-33.3,29.8-57.4c-7.6-24.1-33.3-37.4-57.4-29.8
		c-24.1,7.6-37.4,33.3-29.8,57.4C2445.2,416.8,2470.9,430.2,2495,422.6L2495,422.6z"/>
	<path class="st6" d="M2500.6,1258.3c-12.1,3.8-25.1-2.9-29-15c-3.8-12.1,2.9-25.1,15-29c12.1-3.8,25.1,2.9,29,15
		C2519.4,1241.4,2512.7,1254.4,2500.6,1258.3L2500.6,1258.3z M2504.7,1271.3c19.3-6.1,30-26.7,23.9-46c-6.1-19.3-26.7-30-46-23.9
		c-19.3,6.1-30,26.7-23.9,46C2464.8,1266.7,2485.4,1277.4,2504.7,1271.3L2504.7,1271.3z"/>
	<g>
		<g>
			<path class="st1" d="M2593.6,1000.4c-29.2,10-124.8,181.7-124.8,181.7l73.6,4.8l78.8-79.9L2593.6,1000.4z"/>
			<path d="M2692,1849.9c-27.2,36.3-94.1,14-91.9,63.2c101.7-0.6,144,0,144,0c-0.1-11.3-2.1-38.1-4.5-48.6L2692,1849.9z"/>
			<path d="M2844.2,1850.9c-27.2,36.3-94.1,14-91.9,63.2c101.7-0.6,144,0,144,0c-0.1-11.3-2.1-38.1-4.5-48.6L2844.2,1850.9z"/>
			<path class="st21" d="M2633.6,1293.9c0,0-16.3,234-9.6,285.8c6.7,51.8,41.7,118.4,39,289.6c33.2,8,81.2,0,81.2,0
				s7.1-193.6-27.9-280c14.3-84,60-276.4,60-276.4L2633.6,1293.9z"/>
			<path class="st11" d="M2734.4,1302.1c0,0,1.5,258.4,17.8,307.9c16.3,49.6,48,84.9,77.6,253.6c34.1,1.6,83.1,2.3,83.1,2.3
				s-17.4-216.8-70.5-265.4c-1.8-85.2,20.1-300.1,20.1-300.1L2734.4,1302.1z"/>
			<polygon class="st0" points="2652.6,965.1 2696.6,950.6 2742.9,952.7 2705.4,1014.4 			"/>
			<path class="st19" d="M2668.3,993.8c21.8,10.9,49.1,8,68.3-9.5l-8.8-69.5l-64.6,9.5L2668.3,993.8z"/>
			<path class="st0" d="M2760,974.2L2760,974.2l-14.5-2.2l-2.5-19.2l-30.2,38.2l-10.1,4.1l-10.8-1.2l-39.3-28.7l2.7,19.2l-11.2,5.1
				l0,0l-40.9,16.6l48.9,236.7l1.5,78.6c60.6,5.8,124.7,1.4,184.7-21.3l-20.5-80l-8.8-240.2L2760,974.2z"/>
			<polygon class="st17" points="2694.7,1020.9 2701.9,1207.3 2720.6,1225.1 2737.1,1206.6 2708.9,1019.8 			"/>
			<polygon class="st17" points="2681,999.6 2697.5,994 2716.8,995.9 2709,1020.2 2694.7,1021.6 			"/>
			<g>
				<path class="st6" d="M2649.8,974.1l25,208.6l-2.8,288.4c0,0-7.9,20.2-41.9,0l-37-470.6L2649.8,974.1z"/>
				<polygon class="st24" points="2650.6,971.7 2676.9,1197.1 2624,1025.9 				"/>
			</g>
			<g>
				<path class="st6" d="M2744.4,954.7l42.9,518.8c0,0,97,21.6,125.7-2.4l-45.9-220.9l-60.7-296.1L2744.4,954.7z"/>
				<polygon class="st24" points="2743.6,954 2763.1,1181.1 2782.5,998.4 				"/>
			</g>
			<g>
				<g>
					
						<ellipse transform="matrix(0.9999 -1.081771e-02 1.081771e-02 0.9999 -9.1369 28.9751)" class="st19" cx="2673.8" cy="859.1" rx="69.2" ry="88.1"/>
					<path d="M2626.5,875.6c-3.4,2-7.8,0.7-9.8-2.7c-2-3.4-0.7-7.8,2.7-9.8c3.4-2,7.8-0.7,9.8,2.7
						C2631.2,869.2,2630,873.6,2626.5,875.6z"/>
					<path d="M2679.8,862.8c-1.1,3.8-5,6.1-8.8,5c-3.8-1.1-6.1-5-5-8.8c1.1-3.8,5-6.1,8.8-5C2678.6,855,2680.9,858.9,2679.8,862.8z"
						/>
					<path class="st20" d="M2641.6,864.4c-2.4,12.5-5.6,27.9-5.6,27.9s7.8,9.2,21.9,3.9c-6.9-0.2-14.3-1.9-15-10.7
						C2642.3,876.7,2641.6,864.4,2641.6,864.4z"/>
					<g>
						<path class="st11" d="M2686.4,849c-1.2,0.9-2.9,0.9-4.1-0.1c-0.3-0.2-7.2-5.8-13.2-1.4c-1.5,1.1-3.5,0.8-4.6-0.7
							c-1.1-1.5-0.8-3.6,0.7-4.6c8.1-6,17.5-1.5,21.4,1.7c1.4,1.2,1.6,3.3,0.4,4.7C2686.8,848.6,2686.6,848.8,2686.4,849z"/>
					</g>
					<g>
						<path class="st11" d="M2609.2,865.2c1.5,0.3,3-0.5,3.6-1.9c0.2-0.3,4-8.4,11.3-7c1.8,0.3,3.5-0.8,3.9-2.6
							c0.3-1.8-0.9-3.5-2.6-3.9c-9.9-1.9-16.5,6.2-18.5,10.8c-0.8,1.7,0,3.6,1.7,4.4C2608.7,865.1,2608.9,865.2,2609.2,865.2z"/>
					</g>
					<path class="st11" d="M2736.3,861.9c-5.9-16.7-19.1-8-28.4-29.5c-9.3-21.4-17.2-37.4-36.8-26.4c-19.6,10.9-26.3,7.8-36.4,5.8
						c-30.5-6-30,43.6-30,43.6S2576,822,2592,796.6c17.7-28.2,28.1-14,45.7-35.6c17.6-21.6,53-23.6,64.4-12.3
						c12,12,16.8,21.9,39.9,25.1c23.1,3.3,38.7,16.6,27.8,43.9c-10.9,27.2,24.4,31.9,0.6,61.8c-9.2,11.6-29.1,20.6-33.9,17.4
						C2730.1,892.8,2740.1,872.6,2736.3,861.9z"/>
					<path class="st11" d="M2608,885.8c0,0,8.8,22.2,15.5,28.1c-0.7-11.2,17.1-4.9,24.8-7.1c18.5-5.5,41.8-25.1,56.7-0.3
						c24.4-2.8,25.1-56.8,25.1-56.8c24.1,50.5,2.4,94.4-55.1,110C2637.1,969.9,2607.8,925.7,2608,885.8z"/>
					<g>
						<path class="st19" d="M2726.4,851.9c-5.9,10.2-3.9,22.5,4.4,27.3c8.4,4.8,20,0.5,25.9-9.8c5.9-10.2,3.9-22.5-4.4-27.3
							C2743.9,837.3,2732.3,841.7,2726.4,851.9z"/>
						<g>
							<path class="st20" d="M2740.6,872.9c-0.4,0-0.8-0.1-1.1-0.4c-5.1-3.1-7.4-7.9-6.2-12.9c1.2-5.2,5.8-9.1,10.9-9.5
								c1.4-0.1,2.7,1,2.8,2.4c0.1,1.4-1,2.7-2.4,2.8c-2.8,0.2-5.5,2.6-6.2,5.5c-0.7,2.8,0.7,5.4,3.9,7.3c1.2,0.7,1.6,2.3,0.9,3.5
								C2742.5,872.5,2741.5,872.9,2740.6,872.9z"/>
						</g>
					</g>
					<g>
						<path class="st20" d="M2663.3,922.1c-1.5,0.7-3,1.2-4.6,1.6c-11.7,2.9-21.9-3.3-22.3-3.5c-1.3-0.8-1.7-2.6-0.9-3.9
							c0.8-1.3,2.6-1.7,3.9-0.9l0,0c0.1,0.1,8.7,5.2,18,2.8c6.1-1.5,11.3-6,15.4-13.1c0.8-1.3,2.5-1.8,3.9-1c1.3,0.8,1.8,2.5,1,3.9
							C2673.7,914.7,2668.9,919.4,2663.3,922.1z"/>
					</g>
				</g>
			</g>
			<polygon class="st6" points="2697.5,994 2733.5,1019.4 2752.8,965.5 2742.9,952.7 			"/>
			<polygon class="st6" points="2697.5,994 2675.4,1023.6 2646.5,980 2652.6,965.1 			"/>
		</g>
		<g id="с_16_">
			<path id="с_23_" class="st25" d="M2237.9,1918.8h-1.1c-8.6,0-15.5-6.9-15.5-15.5v-265.2h32.1v265.2
				C2253.4,1911.9,2246.4,1918.8,2237.9,1918.8z"/>
			<path id="с_22_" class="st25" d="M2350.4,1918.8h-1.1c-8.6,0-15.5-6.9-15.5-15.5v-265.2h32.1v265.2
				C2365.9,1911.9,2358.9,1918.8,2350.4,1918.8z"/>
			<path id="с_21_" class="st25" d="M2513.5,1903.8c0,8.3-7.2,15-16,15l0,0c-8.9,0-16-6.7-16-15v-265.7h32.1V1903.8z"/>
			<path id="с_20_" class="st25" d="M2610.6,1918.8h-1.1c-8.6,0-15.5-6.9-15.5-15.5v-265.2h32.1v265.2
				C2626.1,1911.9,2619.1,1918.8,2610.6,1918.8z"/>
			<path id="с_19_" class="st0" d="M2432.6,1216.5v338.1c0,3.8-3.1,7-7,7H2216c-21.2,0-38.3,17.1-38.3,38.3l0,0
				c0,21.2,17.1,38.3,38.3,38.3h216.6h38.3c21.1,0,38.3-17.1,38.3-38.3v-38.3v-345.1c0-21.1-17.1-38.3-38.3-38.3h0
				C2449.7,1178.2,2432.6,1195.3,2432.6,1216.5z"/>
			<rect id="с_18_" x="2470.9" y="1178.2" class="st0" width="165.7" height="389.6"/>
			<path id="с_17_" class="st25" d="M2598.3,1216.5v338.1c0,3.8-3.1,7-7,7h-209.6c-21.1,0-38.3,17.1-38.3,38.3l0,0
				c0,21.2,17.1,38.3,38.3,38.3h216.6h38.3c21.1,0,38.3-17.1,38.3-38.3v-38.3v-345.1c0-21.1-17.1-38.3-38.3-38.3l0,0
				C2615.5,1178.2,2598.3,1195.3,2598.3,1216.5z"/>
		</g>
		<g id="c_35_">
			<path class="st1" d="M2336.9,1163.9c-42.2,12.8-63.3,101.8-81.2,194.8c-24.3,31.9-50.4,49.4-88.4,87c25.8,5.8,53.1-1,53.1-1
				s70.2,0.6,100.6-65.7c7-15.2,9.3-45.7,13.3-59.3C2335.9,1277.2,2336.9,1163.9,2336.9,1163.9z"/>
			<path class="st19" d="M2089.8,1873l-38,9.6l-15.5-33.9c1.6-1.2,4.1-23.7,5.6-40.9l61.4,8.5
				C2100.2,1833.6,2095.1,1856.3,2089.8,1873z"/>
			<g>
				<g>
					<path class="st21" d="M2022.6,1893c0,0-13.2-22.1-29.8-23.5c0,0-31.5,1.8-42.5,15c-3.5,4.2-2.1,13-0.8,18.7
						c0.9,3.5,3.9,7.4,13.2,10.3c13.7,4.3,32.3,7,66.4-1.9c40.9-10.6,47.5-6.2,62.6-11.1c15.7-5.1,10.6-24.2,6.4-42.9
						C2098,1857.6,2086.6,1880.5,2022.6,1893z"/>
				</g>
				<g>
					<g>
						<path class="st11" d="M2035.1,1845.4c0,0-18.3,11.1-42.2,16.5c-13.4,3.1-49,10-43.3,33.7c0.9,3.5,3.9,7.4,13.2,10.3
							c13.7,4.3,32.3,7,66.4-1.9c40.9-10.6,47.5-6.2,62.6-11.1c15.7-5.1,8.4-26.8,4.2-45.5l0,0c-0.4,4.7-2.6,17.2-31,28.3
							C2056.5,1879.2,2063.5,1841.7,2035.1,1845.4z"/>
					</g>
				</g>
				<g>
					<path class="st26" d="M2040.5,1874c-1.4-0.1-2.6-1-2.9-2.4c-2.9-11.6-14.9-12.4-15.4-12.5c-1.8-0.1-3.1-1.6-3-3.4
						c0.1-1.8,1.6-3.1,3.4-3.1c6,0.3,18.1,4.3,21.3,17.4c0.4,1.7-0.6,3.5-2.4,3.9C2041.1,1874,2040.8,1874,2040.5,1874z"/>
				</g>
				<g>
					<path class="st26" d="M2025.5,1880c-1.4-0.1-2.6-1-2.9-2.4c-2.9-11.6-14.9-12.4-15.4-12.5c-1.8-0.1-3.1-1.6-3-3.4
						c0.1-1.8,1.6-3.1,3.4-3.1c6,0.3,18.1,4.3,21.3,17.4c0.4,1.7-0.6,3.5-2.4,3.9C2026.1,1880,2025.8,1880.1,2025.5,1880z"/>
				</g>
			</g>
			<path class="st19" d="M2238.4,1887.3l-37.3,12.3l-17.9-32.7c1.5-1.3,6.9-25.1,7.2-42.3l57.4,5.3
				C2246,1847.3,2242.6,1870.2,2238.4,1887.3z"/>
			<path class="st21" d="M2300.2,1463c-85,15.5-205.7,70.6-217.6,83.1c-24.6,25.9-36.6,114.8-48.2,273.3l74.4,5
				c27.5-123.8,53.3-177.8,57.5-228c0,0,65.2,4.5,163.2-33.3c48.3-18.7,98.7-40.4,84.2-84.1
				C2402.2,1444.1,2381.3,1448.2,2300.2,1463z"/>
			<path class="st11" d="M2395.3,1470.4c-70.6,7.3-164.8,88.1-176.7,100.6c-24.6,25.9-27.7,114.2-39.3,272.7l74,6.8
				c12-82.1,47-176.1,46.9-236.4c0,0,66.3-14.4,168.8-37.4c56.1-12.6,72.9-21.3,83.7-57.9c3.7-12.5,8.6-41.3,3-47.8
				C2530.9,1442.4,2462.1,1463.5,2395.3,1470.4z"/>
			<g>
				<g>
					<path class="st21" d="M2172.8,1912c0,0-14.7-21.1-31.4-21.4c0,0-31.3,4-41.3,18c-3.2,4.4-1.2,13.1,0.6,18.7
						c1.1,3.5,4.4,7.1,13.9,9.4c14,3.3,32.7,4.7,66.1-6.5c40.1-13.5,46.9-9.6,61.7-15.5c15.3-6.1,8.9-24.9,3.3-43.2
						C2245.6,1871.4,2235.8,1895,2172.8,1912z"/>
				</g>
				<g>
					<g>
						<path class="st11" d="M2182,1863.7c0,0-17.4,12.3-40.9,19.5c-13.1,4-48.2,13.4-40.8,36.7c1.1,3.5,4.4,7.1,13.9,9.4
							c14,3.3,32.7,4.7,66.1-6.5c40.1-13.5,46.9-9.6,61.7-15.5c15.3-6.1,6.5-27.3,1-45.7l0,0c-0.1,4.8-1.4,17.3-29,30.4
							C2205.7,1895.8,2209.9,1858,2182,1863.7z"/>
					</g>
				</g>
				<g>
					<path class="st26" d="M2195.5,1893.1c-1.4-0.1-2.6-1-2.9-2.4c-2.9-11.6-14.9-12.4-15.4-12.5c-1.8-0.1-3.1-1.6-3-3.4
						s1.6-3.1,3.4-3.1c6,0.3,18.1,4.3,21.3,17.4c0.4,1.7-0.6,3.5-2.4,3.9C2196.2,1893.1,2195.9,1893.1,2195.5,1893.1z"/>
				</g>
				<g>
					<path class="st26" d="M2180.5,1899.1c-1.4-0.1-2.6-1-2.9-2.4c-2.9-11.6-14.9-12.4-15.4-12.5c-1.8-0.1-3.1-1.6-3-3.4
						c0.1-1.8,1.6-3.1,3.4-3.1c6,0.3,18.1,4.3,21.3,17.4c0.4,1.7-0.6,3.5-2.4,3.9C2181.2,1899.1,2180.8,1899.1,2180.5,1899.1z"/>
				</g>
			</g>
			<g>
				<polygon id="v-2_6_" class="st19" points="2441.9,1092.8 2441.9,1092.8 2413.7,1092.9 2407.3,1159.4 2440.2,1176.8 
					2475.3,1159.6 2469.6,1092.9 				"/>
				<g>
					<g>
						<path class="st11" d="M2444.6,1083.5c24.8,7,43.1-23.2,43.1-23.2c15.9-0.1,15.7-15.9,15.7-15.9c7.7-1.1,18.7-7.4,17.8-21.9
							c-0.8-12.3-12.5-13.5-11.8-27.7c0.5-11.3,12.8-37.4-22.4-45.1c0,0,2.4-20.9-18.2-29.2c-25.2-10.2-34.2,4.6-46.1,5.6
							c-13.3,1.1-39.1-15-47.3,14.2c0,0-18.4-2.4-28.9,9.6c-9.8,11.2-7.7,27.8-3.3,34.4c0,0-15.5,2.7-21,16.1
							c-3.7,9-2,21.6,6.4,28.9c5.3,4.6,10.9,5.9,10.9,5.9c5.8,1.9,3.7,18,8.5,22c7.7,6.3,16.4,11.3,25.3,15.5L2444.6,1083.5z"/>
						<path class="st19" d="M2490.8,1044.3c-1.6,46.6-38.2,86.8-74.8,85.6c-36.6-1.3-59.5-43.5-57.9-90.2
							c1.6-46.6,32.6-83.4,69.3-82.1C2464,958.8,2492.4,997.6,2490.8,1044.3z"/>
						<path d="M2379.5,1056.6c-0.9,3.4-4.4,5.4-7.8,4.5c-3.4-0.9-5.4-4.4-4.5-7.8s4.4-5.4,7.8-4.5
							C2378.3,1049.7,2380.4,1053.2,2379.5,1056.6z"/>
						<path d="M2432.1,1054.7c-1,3.7-4.8,5.9-8.5,4.9c-3.7-1-5.9-4.8-4.9-8.5c1-3.7,4.8-5.9,8.5-4.9
							C2430.9,1047.2,2433.1,1051,2432.1,1054.7z"/>
						<path class="st20" d="M2399.8,1056.4c-5.8,9.3-13.2,20.7-13.2,20.7s3.4,9.8,16.4,9.9c-5.5-2.3-10.9-5.9-8.7-13.2
							C2396.6,1066.4,2399.8,1056.4,2399.8,1056.4z"/>
						<g>
							<path class="st11" d="M2438.3,1041.6c0.2-0.1,0.5-0.2,0.7-0.3c1.5-1,1.9-2.9,0.9-4.4c-2.6-4-10-10.7-19.2-7.5
								c-1.7,0.6-2.5,2.4-1.9,4.1c0.6,1.7,2.4,2.5,4.1,1.9c6.8-2.4,11.7,4.9,11.7,5C2435.4,1041.6,2436.9,1042.1,2438.3,1041.6z"/>
						</g>
						<g>
							<path class="st11" d="M2377.7,1039.9c0.4-0.2,0.8-0.4,1.1-0.8c0.9-1.1,0.8-2.8-0.3-3.7c-0.2-0.1-4.4-3.6-9.7-2.7
								c-3.6,0.6-6.7,3-9.2,7c-0.8,1.2-0.4,2.9,0.9,3.6c1.2,0.8,2.9,0.4,3.6-0.9c1.7-2.7,3.5-4.2,5.5-4.6c2.9-0.5,5.4,1.5,5.4,1.6
								C2375.9,1040,2376.9,1040.2,2377.7,1039.9z"/>
						</g>
						<path class="st11" d="M2346.6,993.1l78.4-51.4l81.2,58.1l-20.4,61.8c2.2-29.6-17.2-22.9-25.2-32.8
							c-8.1-10.1-10.1-24.3-34.1-15.6c0,0-16.1-15.1-27.9,1c-9.1,12.4-18.4,8.4-28.2,7.6c-11.5-0.9-10.4,10.6-17.3,9.2L2346.6,993.1
							z"/>
						<g>
							<path class="st19" d="M2480.5,1040.6c-7.2,8.3-7.5,19.8-0.7,25.7c6.8,5.9,18.1,3.9,25.3-4.4c7.2-8.3,7.5-19.8,0.7-25.7
								S2487.6,1032.3,2480.5,1040.6z"/>
							<g>
								<path class="st20" d="M2489.8,1062.2c-0.3-0.1-0.7-0.3-1-0.5c-4.1-3.7-5.4-8.5-3.4-12.9c2-4.5,6.9-7.3,11.6-6.7
									c1.3,0.2,2.2,1.4,2.1,2.7c-0.2,1.3-1.4,2.2-2.7,2.1c-2.6-0.3-5.5,1.4-6.6,4c-1.1,2.4-0.3,5,2.2,7.3c1,0.9,1.1,2.4,0.2,3.4
									C2491.6,1062.2,2490.6,1062.4,2489.8,1062.2z"/>
							</g>
						</g>
						<path class="st6" d="M2388.7,1104.7c-1.3-1.4-0.3-3.6,1.5-3.6c4.7,0,12.5-0.1,19.9-0.9c7.4-0.8,15-2.5,19.6-3.6
							c1.8-0.4,3.2,1.5,2.3,3.1c-2.9,5-9.1,12.7-20.4,14C2400.4,1115,2392.6,1108.9,2388.7,1104.7z"/>
						<g>
							<g>
								<path d="M2423.6,1068.6c-8.5,0-15.9-5.3-17.1-12.8c-0.7-4.2,0.6-8.4,3.6-11.9c2.9-3.4,7.1-5.7,11.9-6.4
									c4.7-0.8,9.4,0.1,13.3,2.4c3.9,2.4,6.5,6,7.1,10.2c1.4,8.5-5.6,16.7-15.5,18.3C2425.8,1068.5,2424.7,1068.6,2423.6,1068.6z
									 M2425.4,1041.2c-0.9,0-1.8,0.1-2.7,0.2c-3.8,0.6-7.2,2.4-9.5,5.1c-2.2,2.6-3.2,5.6-2.7,8.6c1,6.3,8.1,10.5,15.8,9.2
									c7.7-1.2,13.2-7.4,12.2-13.7c-0.5-3-2.3-5.6-5.3-7.4C2430.9,1041.9,2428.2,1041.2,2425.4,1041.2z"/>
							</g>
							<g>
								<path d="M2375.4,1070.9c-1.2,0-2.4-0.1-3.6-0.3c-4.8-0.8-9-3.1-12-6.6c-3-3.5-4.3-7.8-3.6-12.1c1.4-8.6,10.8-14.2,20.8-12.6
									c4.8,0.8,9,3.1,12,6.6c3,3.5,4.3,7.8,3.6,12.1l0,0c-0.7,4.2-3.3,7.9-7.3,10.2C2382.4,1070,2378.9,1070.9,2375.4,1070.9z
									 M2373.5,1043.1c-6.7,0-12.3,3.9-13.3,9.5c-0.5,3,0.4,6.2,2.7,8.8c2.3,2.7,5.7,4.6,9.6,5.2c3.9,0.6,7.7,0,10.8-1.8
									c3-1.8,4.9-4.4,5.4-7.4l0,0c0.5-3-0.4-6.2-2.7-8.8c-2.3-2.7-5.7-4.6-9.6-5.2C2375.4,1043.2,2374.4,1043.1,2373.5,1043.1z"/>
							</g>
							<g>
								<rect x="2390.1" y="1050.9" width="18.2" height="4"/>
							</g>
							<g>
								<path d="M2440.4,1052.3c-1.1,0-2-0.9-2-2c0-1,0.8-1.9,1.8-2c2-0.4,25.4-7.5,40.7-12.2c1.1-0.3,2.2,0.3,2.5,1.3
									c0.3,1.1-0.3,2.2-1.3,2.5C2441.9,1052.3,2440.8,1052.3,2440.4,1052.3C2440.5,1052.3,2440.4,1052.3,2440.4,1052.3z
									 M2440.4,1048.3c0,0-0.1,0-0.2,0C2440.3,1048.3,2440.4,1048.3,2440.4,1048.3z"/>
							</g>
						</g>
					</g>
				</g>
			</g>
			<g id="v_6_">
				<path class="st17" d="M2555.7,1472.2c0,0-59,6.1-114.2,6.4c-55.2-0.4-114.2-11.1-114.2-11.1s7.4-101.5,6.7-140.4
					c-1.1-44.7,2.9-104.1,2.9-163.2c0,0,39.2-6.3,61.3-9c3.6-0.4,6.7-0.8,9.2-1c0,0,12.6,26.4,67.5,0c2.9-0.3,6.5-0.3,10.4,0
					c23.1,1.4,60.2,10.1,60.2,10.1c0,59,2.4,116.7,1.6,161.5C2549.5,1365.3,2555.7,1472.2,2555.7,1472.2z"/>
			</g>
			<path class="st6" d="M2395.9,1155.2c-1,5.7-46,315.9-46,315.9l-22.5-3.6l9.5-303.6C2336.9,1163.9,2363.7,1156,2395.9,1155.2z"/>
			<path class="st6" d="M2545.4,1163.9c0,0-22.6-7.2-60.2-10.1c0,2.9-25.3,462.8-25.3,462.8l116.9-8.9L2545.4,1163.9z"/>
			<g id="c_36_">
				<path class="st19" d="M2410.4,1291.7l-13.4-7.7c0,0-3.7-19-25.2-19.4c2.5,8,6,19.4,6,19.4s-10.6,8.2-35.6-5.8
					c-24.5-5.5-14,12.4-22.2,13.6c-12,1.9,8.7,25.4,33.2,29.1c31.7,4.7,35.4-1.8,35.4-1.8l17.9,6.3L2410.4,1291.7z"/>
				<path id="c_37_" class="st1" d="M2534.1,1312c-44.7-3.1-121-25.2-121-25.2c-12.2,18.7-8.8,43.6-8.8,43.6
					c69.4,60.9,173.9,80.5,206,65.9c29.3-13.4,8.6-191.5-64.9-232.3l-2.5,0.2C2517.7,1206.8,2534.1,1312,2534.1,1312z"/>
			</g>
			<path class="st27" d="M2485.2,1153.8L2485.2,1153.8c-3.8,6.4-9.2,11.2-16.8,15c-12.1,6.1-28.5,8.7-38.5,7.9
				c-8-0.6-16.9-3.9-22.5-8.4c-6-4.8-8.7-10.9-9.2-13.5c3.6-0.4,7.3-1,9.7-1.2c0,0,12,26.6,66.9,0.2
				C2477.7,1153.6,2481.2,1153.6,2485.2,1153.8z"/>
		</g>
		<g>
			<path class="st28" d="M2782.6,1478.6H778.7c-11.3,0-20.5-9.2-20.5-20.5l0,0c0-11.3,9.2-20.5,20.5-20.5h2003.9
				c11.3,0,20.5,9.2,20.5,20.5l0,0C2803.1,1469.5,2794,1478.6,2782.6,1478.6z"/>
			<path class="st28" d="M832.9,1918.8h-0.6c-9.7,0-17.6-7.9-17.6-17.6V1484c0-9.7,7.9-17.6,17.6-17.6h0.6c9.7,0,17.6,7.9,17.6,17.6
				v417.2C850.5,1911,842.6,1918.8,832.9,1918.8z"/>
			<path class="st28" d="M2757.1,1918.8h-0.6c-9.7,0-17.6-7.9-17.6-17.6V1484c0-9.7,7.9-17.6,17.6-17.6h0.6
				c9.7,0,17.6,7.9,17.6,17.6v417.2C2774.7,1911,2766.8,1918.8,2757.1,1918.8z"/>
		</g>
		<g>
			<path class="st13" d="M2354.6,1438h-236.3l-46.6-148.3c-2.2-6.8,3-13.8,10.1-13.8h214c4.6,0,8.7,3,10.1,7.4L2354.6,1438z"/>
			<path class="st7" d="M2336.6,1438h-236.3l-46.6-148.3c-2.2-6.8,3-13.8,10.1-13.8h214c4.6,0,8.7,3,10.1,7.4L2336.6,1438z"/>
			<path class="st29" d="M2197.5,1359.8c2.6,9.2-2,18.5-10.3,20.9c-8.3,2.4-17.2-3.1-19.8-12.3c-2.6-9.2,2-18.5,10.3-20.9
				C2186.1,1345.2,2194.9,1350.7,2197.5,1359.8z"/>
			<path class="st13" d="M2488.8,1422.5h-152.2v15.1h167.3l0,0C2503.9,1429.3,2497.1,1422.5,2488.8,1422.5z"/>
		</g>
		<g>
			<path class="st19" d="M2600.9,1284.7c10.6-5,22.4-8,26-23.1c0,0,28.6-7.6,58.6-14.3c0,0-36.5-33.4-36.5-33.4
				c-11.9,4-33.7,18.8-47.1,19.1c-3.5,0.1-7,0-10.5,0c-8.5-0.1-17.4-1.1-26.5,5.6c-35.2,26-49,21.5-50.4,24.5
				c-1.2,4.7,8.3,13.6,26.2,4.6c17.4-8.7,26.6-8.8,26.6-8.8s-0.3,15.2,5.7,19.5C2575.8,1280.5,2588.6,1290.6,2600.9,1284.7z"/>
			<path class="st1" d="M2635.5,1212.6c0,0,93.5-45.1,164.6-59.7c-9.8-35.6,6.2-199.9,6.2-199.9s48,11.8,71.8,100.8
				c23.8,89-30.8,179.6-30.8,179.6s-147.4,41-200.1,26C2638.9,1257.1,2635.5,1212.6,2635.5,1212.6z"/>
		</g>
	</g>
	<g>
		<circle class="st6" cx="1835.7" cy="1223.6" r="74.7"/>
		<path class="st30" d="M1903,1223.6c0,37.2-30.1,67.3-67.3,67.3c-37.2,0-67.3-30.1-67.3-67.3H1903z"/>
		<path class="st21" d="M1910.1,1268.6h-139.8c-4,0-7.2-3.2-7.2-7.2l0,0c0-4,3.2-7.2,7.2-7.2h139.8c4,0,7.2,3.2,7.2,7.2l0,0
			C1917.3,1265.4,1914.1,1268.6,1910.1,1268.6z"/>
		<g>
			<path class="st21" d="M1715.5,1438.1c-0.6,0-1.3-0.1-1.9-0.3c-3.3-1.1-5.1-4.6-4-7.8l60.5-163.2c1.1-3.3,4.6-5.1,7.8-4
				c3.3,1.1,5.1,4.6,4,7.8l-60.5,163.2C1720.5,1436.4,1718.1,1438.1,1715.5,1438.1z"/>
		</g>
		<g>
			<path class="st21" d="M1962,1438.1c-2.6,0-5-1.6-5.9-4.2l-63.4-163.2c-1.1-3.2,0.6-6.8,3.9-7.9c3.2-1.1,6.8,0.6,7.9,3.9
				l63.4,163.2c1.1,3.2-0.6,6.8-3.9,7.9C1963.3,1438,1962.7,1438.1,1962,1438.1z"/>
		</g>
		<g>
			<path class="st21" d="M1840.2,1437.7c-3.4,0-6.2-2.8-6.2-6.2v-170.1c0-3.4,2.8-6.2,6.2-6.2s6.2,2.8,6.2,6.2v170.1
				C1846.4,1434.9,1843.6,1437.7,1840.2,1437.7z"/>
		</g>
		<g>
			
				<rect x="1854.8" y="1089.8" transform="matrix(0.8667 0.4988 -0.4988 0.8667 822.8882 -781.7345)" class="st6" width="39.1" height="118.5"/>
			<path class="st6" d="M1917.7,1110.7l-32.1-18.1c-3.9-2.2-5.3-7.2-3.1-11.2l0.4-0.6c2.2-3.9,7.2-5.3,11.2-3.1l32.1,18.1
				c3.9,2.2,5.3,7.2,3.1,11.2l-0.4,0.6C1926.6,1111.5,1921.6,1112.9,1917.7,1110.7z"/>
		</g>
		<path class="st30" d="M1816.4,1192.6c0,2.8-2.3,5-5,5s-5-2.3-5-5c0-2.8,2.3-5,5-5S1816.4,1189.8,1816.4,1192.6z"/>
		<path class="st30" d="M1838.6,1166.9c0,1.6-1.3,2.9-2.9,2.9s-2.9-1.3-2.9-2.9c0-1.6,1.3-2.9,2.9-2.9S1838.6,1165.3,1838.6,1166.9z
			"/>
		<path class="st30" d="M1895.3,1129.6c0,1.6-1.3,2.9-2.9,2.9s-2.9-1.3-2.9-2.9s1.3-2.9,2.9-2.9S1895.3,1128,1895.3,1129.6z"/>
		<path class="st30" d="M1882.7,1200.7c0,1.6-1.3,2.9-2.9,2.9c-1.6,0-2.9-1.3-2.9-2.9c0-1.6,1.3-2.9,2.9-2.9
			C1881.4,1197.7,1882.7,1199,1882.7,1200.7z"/>
		<path class="st30" d="M1834,1210.1c0,2.4-1.9,4.3-4.3,4.3c-2.4,0-4.3-1.9-4.3-4.3c0-2.4,1.9-4.3,4.3-4.3
			C1832,1205.8,1834,1207.8,1834,1210.1z"/>
		<path class="st30" d="M1874.2,1150.2c0,2.4-2,4.4-4.4,4.4c-2.4,0-4.4-2-4.4-4.4c0-2.4,2-4.4,4.4-4.4
			C1872.3,1145.8,1874.2,1147.8,1874.2,1150.2z"/>
		<path class="st30" d="M1864.2,1192.6c0,2.9-2.4,5.3-5.3,5.3c-2.9,0-5.3-2.4-5.3-5.3c0-2.9,2.4-5.3,5.3-5.3
			C1861.8,1187.3,1864.2,1189.7,1864.2,1192.6z"/>
	</g>
	<g>
		<g>
			<g>
				<path class="st6" d="M1309.2,1414.5l-62.1-118.8v-89.5l0,0c3,0,5.5-2.5,5.5-5.5v-2.8c0-3-2.5-5.5-5.5-5.5h-33
					c-3,0-5.5,2.5-5.5,5.5v2.8c0,3,2.5,5.5,5.5,5.5l0,0v89.5l-62.1,118.8c-5.2,10,1.1,22.7,11.2,22.7h67.4h67.4
					C1308.1,1437.2,1314.4,1424.5,1309.2,1414.5z"/>
				<path class="st7" d="M1267.1,1352.7H1194l-29,55.4c-4.4,8.3,0.9,18.9,9.4,18.9h56.2h56.2c8.5,0,13.7-10.6,9.4-18.9
					L1267.1,1352.7z"/>
			</g>
			<path class="st19" d="M1243.4,1192.4h-25.9v-6.7c0-3.3,2.7-6.1,6.1-6.1h13.8c3.3,0,6.1,2.7,6.1,6.1V1192.4z"/>
		</g>
		<g>
			<g>
				<g>
					<path class="st6" d="M1091.9,1341.9l-53.1-119.3v-43.1l0,0c2.6,0,4.7-2.9,4.7-6.4v-1.1c0-3.5-2.1-6.4-4.7-6.4h-28.2
						c-2.6,0-4.7,2.9-4.7,6.4v1.1c0,3.5,2.1,6.4,4.7,6.4l0,0v43.1l-53.1,119.3c-4.5,10,0.9,22.8,9.6,22.8h57.6h57.6
						C1091,1364.7,1096.4,1352,1091.9,1341.9z"/>
					<path class="st7" d="M1063,1300.5h-78.8l-15.6,35c-3.7,8.4,0.8,19,8,19h48h48c7.2,0,11.7-10.6,8-19L1063,1300.5z"/>
				</g>
				<path class="st31" d="M1014.7,1286.1c0,3.6-2.9,6.5-6.5,6.5c-3.6,0-6.5-2.9-6.5-6.5c0-3.6,2.9-6.5,6.5-6.5
					C1011.8,1279.6,1014.7,1282.5,1014.7,1286.1z"/>
				<path class="st31" d="M1028.4,1267.6c0,2.1-1.7,3.7-3.7,3.7c-2.1,0-3.7-1.7-3.7-3.7c0-2.1,1.7-3.7,3.7-3.7
					C1026.7,1263.8,1028.4,1265.5,1028.4,1267.6z"/>
				<path class="st31" d="M1046.6,1295.3c0,2.1-1.7,3.7-3.7,3.7c-2.1,0-3.7-1.7-3.7-3.7c0-2.1,1.7-3.7,3.7-3.7
					C1045,1291.6,1046.6,1293.2,1046.6,1295.3z"/>
				<path class="st31" d="M1020.9,1247c0,2.1-1.7,3.7-3.7,3.7c-2.1,0-3.7-1.7-3.7-3.7c0-2.1,1.7-3.7,3.7-3.7
					C1019.3,1243.2,1020.9,1244.9,1020.9,1247z"/>
			</g>
			<path class="st21" d="M931,1437.4h174.5c12.3,0,22.2-10,22.2-22.2l0,0c0-12.3-10-22.2-22.2-22.2H931c-12.3,0-22.2,10-22.2,22.2
				l0,0C908.8,1427.4,918.7,1437.4,931,1437.4z"/>
			<path class="st21" d="M929.2,1406.6h12.2c0.9,0,1.6-0.7,1.6-1.6v-240c0-4.2-3.4-7.5-7.5-7.5h-0.4c-4.2,0-7.5,3.4-7.5,7.5v240
				C927.6,1405.8,928.3,1406.6,929.2,1406.6z"/>
			<path class="st21" d="M915.6,1201.4h154c3.8,0,6.8-3.1,6.8-6.8l0,0c0-3.8-3.1-6.8-6.8-6.8h-154c-3.8,0-6.8,3.1-6.8,6.8l0,0
				C908.8,1198.3,911.8,1201.4,915.6,1201.4z"/>
			<path class="st21" d="M917.4,1195.2c0,9.5,7.7,17.1,17.1,17.1c9.5,0,17.1-7.7,17.1-17.1c0-9.5-7.7-17.1-17.1-17.1
				C925.1,1178.1,917.4,1185.8,917.4,1195.2z"/>
		</g>
		<g>
			<path class="st19" d="M1183.1,1283.3h-25.9v-6.7c0-3.3,2.7-6.1,6.1-6.1h13.8c3.3,0,6.1,2.7,6.1,6.1V1283.3z"/>
			<g>
				<path class="st6" d="M1240.5,1419.6l-55.6-92.2V1294l0,0c2.7,0,4.9-2.2,4.9-4.9v-0.9c0-2.7-2.2-4.9-4.9-4.9h-29.6
					c-2.7,0-4.9,2.2-4.9,4.9v0.9c0,2.7,2.2,4.9,4.9,4.9l0,0v33.3l-55.6,92.2c-4.7,7.8,0.9,17.6,10.1,17.6h60.4h60.4
					C1239.6,1437.2,1245.2,1427.3,1240.5,1419.6z"/>
				<path class="st17" d="M1202.9,1371.6h-65.5l-26,43c-3.9,6.5,0.8,14.7,8.4,14.7h50.3h50.3c7.6,0,12.3-8.2,8.4-14.7L1202.9,1371.6
					z"/>
			</g>
		</g>
		<g>
			<path class="st19" d="M878.2,1242.3h-25.9v-6.7c0-3.3,2.7-6.1,6.1-6.1h13.8c3.3,0,6.1,2.7,6.1,6.1V1242.3z"/>
			<g>
				<path class="st6" d="M936.7,1420.3l-56.4-95.2v-71.7l0,0c2.8,0,5-2.2,5-5v-1.1c0-2.8-2.2-5-5-5h-30c-2.8,0-5,2.2-5,5v1.1
					c0,2.8,2.2,5,5,5l0,0v71.7l-56.4,95.2c-4.7,8,1,18.2,10.2,18.2h61.2h61.2C935.8,1438.5,941.5,1428.3,936.7,1420.3z"/>
				<path class="st30" d="M898.5,1370.8h-66.4l-26.3,44.4c-4,6.7,0.8,15.2,8.5,15.2h51h51c7.7,0,12.5-8.5,8.5-15.2L898.5,1370.8z"/>
			</g>
		</g>
	</g>
	<g>
		<g>
			<g>
				<path class="st19" d="M1940.2,1238.6h-7.9c-3,0-5.4,2.4-5.4,5.4v13.2h18.6v-13.2C1945.6,1241,1943.2,1238.6,1940.2,1238.6z"/>
				<path class="st6" d="M1951.4,1256.2h-30.3c-2.9,0-5.3,2.4-5.3,5.3v3.1c0,2.9,2.4,5.3,5.3,5.3h2.5v135.8
					c0,7.1,5.7,12.8,12.8,12.8s12.8-5.7,12.8-12.8V1270h2.2c2.9,0,5.3-2.4,5.3-5.3v-3.1C1956.8,1258.6,1954.4,1256.2,1951.4,1256.2z
					"/>
				<path class="st32" d="M1926.5,1344.3v60.6c0,5.4,4.4,9.8,9.8,9.8c5.4,0,9.8-4.4,9.8-9.8v-60.6H1926.5z"/>
			</g>
			<g>
				<path class="st19" d="M2047.6,1238.6h-7.9c-3,0-5.4,2.4-5.4,5.4v13.2h18.6v-13.2C2052.9,1241,2050.5,1238.6,2047.6,1238.6z"/>
				<path class="st6" d="M2059.7,1256.2h-30.3c-2.9,0-5.3,2.4-5.3,5.3v3.1c0,2.9,2.4,5.3,5.3,5.3h2.5v135.8
					c0,7.1,5.7,12.8,12.8,12.8s12.8-5.7,12.8-12.8V1270h2.2c2.9,0,5.3-2.4,5.3-5.3v-3.1C2065.1,1258.6,2062.7,1256.2,2059.7,1256.2z
					"/>
				<path class="st32" d="M2034.5,1334.4l0.2,70.6c0,5.4,4.4,9.8,9.8,9.8c5.4,0,9.8-4.4,9.8-9.8l-0.2-70.6H2034.5z"/>
			</g>
			<g>
				<path class="st6" d="M2005.6,1256.2h-30.3c-2.9,0-5.3,2.4-5.3,5.3v3.1c0,2.9,2.4,5.3,5.3,5.3h2.5v135.8
					c0,7.1,5.7,12.8,12.8,12.8s12.8-5.7,12.8-12.8V1270h2.2c2.9,0,5.3-2.4,5.3-5.3v-3.1C2010.9,1258.6,2008.5,1256.2,2005.6,1256.2z
					"/>
				<path class="st33" d="M1980.9,1313.8l-0.2,91.1c0,5.4,4.4,9.8,9.8,9.8s9.8-4.4,9.8-9.8l0.2-91.1H1980.9z"/>
				<path class="st19" d="M1994.5,1237.2h-7.9c-3,0-5.4,2.4-5.4,5.4v13.2h18.6v-13.2C1999.8,1239.6,1997.4,1237.2,1994.5,1237.2z"/>
			</g>
		</g>
		<path class="st21" d="M2095.7,1290.5h-216c-1.5,0-2.7-1.2-2.7-2.7l0,0c0-1.5,1.2-2.7,2.7-2.7h216c1.5,0,2.7,1.2,2.7,2.7l0,0
			C2098.4,1289.3,2097.2,1290.5,2095.7,1290.5z"/>
		<rect x="1891.9" y="1290.5" class="st21" width="4.7" height="137.1"/>
		<rect x="2078.9" y="1290.5" class="st21" width="4.7" height="137.1"/>
		<path class="st21" d="M2090.7,1437.6h-206c-2.8,0-5-2.2-5-5l0,0c0-2.8,2.2-5,5-5h206c2.8,0,5,2.2,5,5l0,0
			C2095.7,1435.4,2093.5,1437.6,2090.7,1437.6z"/>
	</g>
</g>
</svg>
