<?xml version="1.0" encoding="utf-8"?>
<!-- Generator: Adobe Illustrator 23.0.4, SVG Export Plug-In . SVG Version: 6.00 Build 0)  -->
<svg version="1.1" id="Camada_1" xmlns="http://www.w3.org/2000/svg" xmlns:xlink="http://www.w3.org/1999/xlink" x="0px" y="0px"
	 viewBox="0 0 1133.86 566.93" style="enable-background:new 0 0 1133.86 566.93;" xml:space="preserve">
<style type="text/css">
	.st0{fill:#D1D3D4;}
	.st1{fill-rule:evenodd;clip-rule:evenodd;fill:#D1D3D4;}
</style>
<path class="st0" d="M427.16,487.91h22.97c0.19,1.89,1.6,3.1,4.24,3.84c2.66,0.7,7.5,1.05,14.52,1.05c7.25,0,12.23-0.3,14.84-0.82
	c2.61-0.68,3.92-1.75,3.92-3.26c0-1.51-1.24-2.59-3.76-3.19c-1.19-0.14-7.56-0.44-19.12-0.49c-10.86,0-17.54-0.09-20.1-0.4
	c-7.06-0.75-11.8-2.47-14.31-5.17c-1.85-2.1-2.8-4.85-2.8-8.23c0-6.66,3.28-11.07,9.83-13.02c4.95-1.56,15.52-2.33,31.76-2.33
	c10.22,0,17.71,0.23,22.31,0.91c4.65,0.51,8.25,1.56,10.82,3.29c1.57,0.91,2.7,2.17,3.38,3.49c0.7,1.4,1.16,3.52,1.46,6.22h-22.96
	c-0.38-1.07-0.92-1.84-1.53-2.17c-1.85-0.84-6.54-1.21-14.11-1.21c-7.05,0-11.85,0.19-14.47,0.79c-2.6,0.42-3.9,1.47-3.9,2.87
	c0,1.79,1.82,2.73,5.4,3.03c2.82,0.05,13.02,0.26,30.66,0.35c8.47,0.05,14.54,1.14,18.31,3.17c3.8,2.1,5.7,5.75,5.7,10.88
	c0,3.42-0.73,6.08-2.22,8.29c-1.5,2.14-3.86,3.68-7.04,4.78c-5.31,1.86-16.52,2.68-33.7,2.68c-10.94,0-18.82-0.37-23.61-0.89
	c-4.76-0.63-8.5-1.84-11.26-3.77C429.05,496.3,427.31,492.8,427.16,487.91L427.16,487.91z"/>
<path class="st0" d="M559.69,468.6c-7.39,0-12.42,0.47-15,1.23c-1.88,0.75-3.21,1.79-4,3.31c-0.78,1.49-1.2,3.77-1.2,6.69
	c0,2.98,0.36,5.15,1.02,6.34c0.63,1.38,1.91,2.26,3.77,2.96c2.84,1.05,7.96,1.47,15.38,1.47c8.48,0,13.91-0.7,16.29-1.93
	c2.34-1.4,3.51-4.38,3.51-9.18c0-3.01-0.37-5.17-1.08-6.55c-0.75-1.3-2.09-2.35-4.02-2.98C571.5,469.06,566.63,468.6,559.69,468.6
	L559.69,468.6z M559.51,455.9c10.23,0,17.89,0.26,22.96,0.91c5.06,0.61,9.02,1.65,11.89,3.29c2.99,1.56,4.99,3.73,6.1,6.34
	c1.08,2.61,1.61,6.69,1.61,12.3c0,4.12-0.16,7.39-0.47,9.41c-0.31,2.1-0.89,3.94-1.72,5.73c-2.12,4.12-6.51,6.8-13.09,7.9
	c-5.46,1.05-14.53,1.49-27.2,1.49c-11.21,0-19.24-0.3-24.13-0.81c-4.81-0.7-8.7-1.82-11.58-3.71c-2.77-1.7-4.63-3.94-5.55-6.66
	c-0.96-2.73-1.41-7.43-1.41-14c0-3.73,0.2-6.45,0.59-8.41c0.39-2,1.15-3.73,2.27-5.38c2.27-3.31,6.13-5.52,11.56-6.66
	C536.75,456.46,546.14,455.94,559.51,455.9L559.51,455.9z"/>
<polygon class="st0" points="610.55,438.59 633.03,438.59 633.03,502.15 610.55,502.15 610.55,438.59 "/>
<path class="st0" d="M724.27,502.15h-21.09v-6.73h-1.16c-1.79,2.94-4.61,4.87-8.53,6.08c-3.89,1.26-9.65,1.77-17.26,1.77
	c-6.92,0-12.44-0.44-16.54-1.19c-4.08-1-7.49-2.42-10.2-4.43c-2.73-2.17-4.54-4.45-5.37-7.01c-0.85-2.52-1.25-6.76-1.25-13v-20.67
	h22.44v20.67c0,3.33,0.22,5.64,0.62,7.01c0.43,1.49,1.25,2.61,2.48,3.47c1.3,1,2.96,1.63,5.08,1.98c2.03,0.3,5.2,0.49,9.53,0.49
	c7.27,0,12.23-0.79,14.84-2.54c1.61-1.02,2.68-2.33,3.19-4.08c0.51-1.56,0.77-4.5,0.77-8.78v-18.22h22.46V502.15L724.27,502.15z"/>
<path class="st0" d="M741.3,446.72h22.44v10.25h35.67v12.07h-35.67v13.33c0,3.42,0.3,5.62,0.98,6.45c1.17,1.56,3.77,2.35,7.97,2.35
	c4.38,0,7.04-0.77,8.08-2.19c0.44-0.61,0.7-1.17,0.75-1.72c0.14-0.61,0.16-2.03,0.16-4.43h20.57c-0.05,4.4-0.4,7.43-1.02,9.34
	c-0.56,1.96-1.77,3.66-3.5,5.43c-2.21,2.05-5.31,3.56-9.27,4.47c-3.98,0.75-9.88,1.19-17.68,1.19c-7.15,0-12.51-0.3-16.05-0.79
	c-3.47-0.7-6.34-1.79-8.5-3.33c-1.65-1.16-2.79-2.54-3.52-3.82c-0.68-1.4-1.14-3.26-1.31-5.82c-0.07-0.81-0.09-3.33-0.09-7.13
	v-13.33h-11.88v-12.07h11.88V446.72L741.3,446.72z"/>
<path class="st0" d="M808.19,456.97h22.46v45.18h-22.46V456.97L808.19,456.97z M808.19,438.59h22.46v12.67h-22.46V438.59
	L808.19,438.59z"/>
<path class="st0" d="M882.05,468.6c-7.43,0-12.42,0.47-15.03,1.23c-1.89,0.75-3.24,1.79-4.01,3.31c-0.77,1.49-1.21,3.77-1.21,6.69
	c0,2.98,0.35,5.15,1.02,6.34c0.65,1.38,1.91,2.26,3.77,2.96c2.82,1.05,7.95,1.47,15.36,1.47c8.48,0,13.91-0.7,16.31-1.93
	c2.31-1.4,3.5-4.38,3.5-9.18c0-3.01-0.37-5.17-1.07-6.55c-0.77-1.3-2.07-2.35-4.03-2.98C893.84,469.06,888.97,468.6,882.05,468.6
	L882.05,468.6z M881.84,455.9c10.23,0,17.89,0.26,22.95,0.91c5.08,0.61,9.04,1.65,11.91,3.29c2.96,1.56,5.01,3.73,6.1,6.34
	c1.05,2.61,1.56,6.69,1.56,12.3c0,4.12-0.12,7.39-0.42,9.39c-0.35,2.12-0.91,3.96-1.75,5.75c-2.12,4.12-6.5,6.8-13.07,7.9
	c-5.52,1.05-14.54,1.49-27.19,1.49c-11.25,0-19.27-0.3-24.11-0.81c-4.82-0.7-8.74-1.82-11.65-3.71c-2.73-1.7-4.61-3.94-5.55-6.66
	c-0.91-2.73-1.37-7.43-1.37-14c0-3.73,0.19-6.45,0.56-8.41c0.4-2,1.17-3.73,2.31-5.38c2.26-3.31,6.1-5.52,11.51-6.66
	C859.05,456.46,868.47,455.94,881.84,455.9L881.84,455.9z"/>
<path class="st0" d="M932.89,456.97H954v6.92h1.21c2.05-2.94,5.03-4.96,8.88-6.22c3.89-1.21,9.46-1.77,16.68-1.77
	c7.27,0,12.88,0.44,17.03,1.33c4.12,0.75,7.5,2.24,10.13,4.38c2.82,2.07,4.64,4.45,5.43,6.97c0.84,2.47,1.26,6.85,1.26,13.12v20.46
	h-22.48v-20.46c0-3.7-0.16-6.15-0.54-7.41c-0.33-1.28-1.14-2.38-2.31-3.31c-2.24-1.54-7.22-2.38-15.14-2.38
	c-7.78,0-12.93,0.89-15.49,3c-1.35,1.07-2.28,2.33-2.68,3.94c-0.44,1.68-0.61,4.43-0.61,8.64v17.96h-22.48V456.97L932.89,456.97z"/>
<path class="st0" d="M1022.43,487.91h22.93c0.21,1.89,1.61,3.1,4.29,3.84c2.63,0.7,7.46,1.05,14.49,1.05
	c7.27,0,12.21-0.3,14.84-0.82c2.63-0.68,3.94-1.75,3.94-3.26c0-1.51-1.26-2.59-3.75-3.19c-1.17-0.14-7.55-0.44-19.13-0.49
	c-10.88,0-17.57-0.09-20.13-0.4c-6.99-0.75-11.77-2.47-14.26-5.17c-1.86-2.1-2.77-4.85-2.77-8.23c0-6.66,3.24-11.07,9.81-13.02
	c4.89-1.56,15.49-2.33,31.76-2.33c10.21,0,17.64,0.23,22.3,0.91c4.61,0.51,8.22,1.56,10.79,3.29c1.61,0.89,2.73,2.17,3.42,3.49
	c0.65,1.4,1.14,3.52,1.42,6.22h-22.9c-0.42-1.07-0.89-1.84-1.54-2.19c-1.89-0.81-6.59-1.19-14.17-1.19c-6.99,0-11.81,0.19-14.4,0.79
	c-2.61,0.42-3.94,1.47-3.94,2.87c0,1.79,1.82,2.73,5.43,3.03c2.79,0.05,13.02,0.21,30.64,0.35c8.43,0.05,14.54,1.14,18.31,3.17
	c3.8,2.1,5.71,5.75,5.71,10.88c0,3.42-0.75,6.08-2.24,8.29c-1.49,2.14-3.82,3.68-7.01,4.78c-5.29,1.86-16.54,2.68-33.71,2.68
	c-10.95,0-18.83-0.37-23.58-0.89c-4.78-0.63-8.53-1.89-11.23-3.77C1024.29,496.3,1022.57,492.8,1022.43,487.91L1022.43,487.91z"/>
<polygon class="st0" points="113.7,458.62 124.08,458.62 147.01,496.49 147.93,496.49 165.75,458.62 180.48,458.62 198.45,496.49 
	199.51,496.49 222.22,458.62 232.95,458.62 205.64,502.82 191.72,502.82 173.55,464.98 172.73,464.98 154.78,502.82 140.99,502.82 
	113.7,458.62 "/>
<path class="st0" d="M298.97,476.14c-0.03-4.26-1.56-7.29-4.62-8.92c-1.98-1.16-4.76-1.98-8.38-2.54c-3.54-0.4-8.82-0.6-15.77-0.6
	c-5.99,0-10.61,0.21-13.8,0.6c-3.18,0.42-5.68,1.17-7.42,2.19c-2.93,1.82-4.65,4.82-5.13,9.27H298.97L298.97,476.14z M299.4,489.12
	h9.79c-0.2,5.22-2.64,8.92-7.47,11.11c-4.78,2.07-13.16,3.03-25.07,3.03c-9.92,0-17.38-0.19-22.48-0.77
	c-5.11-0.63-8.99-1.51-11.61-3.01c-5.94-3.1-8.91-9.39-8.91-18.8c0-6.48,1.25-11.51,3.75-14.79c2.41-3.12,5.91-5.31,10.41-6.41
	c4.58-1.12,12.15-1.56,22.76-1.56c10.1,0,17.46,0.4,21.94,1.14c4.56,0.77,8.15,2.42,10.86,4.78c2.25,1.89,3.77,4.12,4.57,6.73
	c0.84,2.56,1.27,6.38,1.41,11.67h-65.8c0.3,5.41,1.74,9.2,4.39,11.32c1.79,1.38,4.64,2.26,8.54,2.82c3.9,0.51,10.26,0.82,19.11,0.82
	c6.68,0,11.56-0.3,14.68-0.72c3.13-0.49,5.43-1.4,7.01-2.56C298.39,492.9,299.13,491.31,299.4,489.12L299.4,489.12z"/>
<path class="st0" d="M354.64,464.24c-6.18,0-10.88,0.14-14.06,0.51c-3.16,0.37-5.62,1-7.32,2.05c-2.18,1.14-3.68,2.68-4.61,4.85
	c-0.91,2.24-1.3,5.27-1.3,9.23c0,5.27,0.74,8.88,2.22,10.83c1.7,2.21,4.48,3.7,8.33,4.45c3.87,0.75,10.99,1.14,21.36,1.14
	c5.42,0,9.61-0.23,12.51-0.68c2.91-0.44,5.35-1.1,7.32-2.05c2.03-1,3.45-2.63,4.32-4.78c0.91-2.14,1.36-5.15,1.36-8.85
	c0-5.15-0.81-8.78-2.35-11.07c-1.67-2.26-4.3-3.77-7.94-4.47C370.92,464.63,364.27,464.24,354.64,464.24L354.64,464.24z
	 M318.25,439.08h9.33v24.81h0.56c2.14-2.31,4.94-3.94,8.46-4.75c3.51-0.77,9.45-1.17,17.81-1.17c9.71,0,16.66,0.3,20.78,0.72
	c4.09,0.44,7.46,1.44,10.06,2.82c3.29,1.72,5.6,3.94,7.03,6.71c1.64,3.08,2.42,7.48,2.42,13.09c0,6.29-1.24,10.93-3.71,14.1
	c-3.31,4.08-9.24,6.66-17.75,7.41c-3.53,0.4-9.29,0.44-17.21,0.44c-9.41,0-15.88-0.37-19.43-1.12c-3.54-0.77-6.45-2.38-8.66-4.94
	h-0.47v5.62h-9.22V439.08L318.25,439.08z"/>
<path class="st0" d="M709.08,281.01c5.38-4.43,13-7.41,22.76-8.99c9.55-1.77,23.74-2.58,42.12-2.58c1.19,0,2.4,0,3.61,0
	c19.36,0.18,34.32,1,44.45,2.76c11,1.79,19.59,4.99,25.56,9.76c9.44,6.87,14.03,19.19,14.19,36.78h-84.2h-84.09
	C694.91,300.54,700.13,287.98,709.08,281.01L709.08,281.01z M893.16,343.04c-0.23-21.3-1.61-37.12-4.03-47.49
	c-2.59-10.36-7.39-19.54-14.17-27.31c-8.18-9.2-19.17-15.6-32.94-18.95c-13.4-3.22-34.92-4.82-64.44-4.82l-2.8-0.18
	c-32.34,0-55.5,2.41-69.34,6.76c-13.77,4.59-24.53,13.16-31.69,25.93c-7.78,13.39-11.59,33.37-11.59,60.12
	c0,38.12,9.03,63.7,27.16,76.42c7.94,5.64,19.76,9.6,35.55,12.04c12.79,1.77,30.29,3.01,52.7,3.38c5.17,0,10.34,0,15.77,0
	c36.49,0,62.07-4.19,76.61-12.81c14.77-8.32,22.39-23.53,22.81-44.92h-29.78c-0.82,9.04-2.98,15.56-6.57,19.38
	c-4.8,4.99-11.81,8.62-21.16,10.39c-9.6,2.03-24.58,3.03-44.94,3.03c-4.4,0-8.55,0-12.74-0.23c-20.41-0.21-35.55-1.17-45.55-2.98
	c-11.98-2.19-20.76-5.96-26.14-11.58c-8.18-8.44-12.58-23.74-13.4-46.18h85.09H893.16L893.16,343.04z"/>
<path class="st0" d="M1075.41,345.23v11.44c0,10.97-0.42,18.54-1.02,23.16c-0.77,4.61-2.17,8.34-4.38,11.77
	c-3.19,4.61-7.76,8.02-13.56,9.6c-6.01,1.82-15.19,2.82-27.96,2.82c-13.77,0-24.14-1-31.15-2.82c-7.18-1.82-12.35-4.99-15.96-9.37
	c-2.98-3.82-4.78-7.67-5.38-11.42c-0.82-3.75-1.21-14.14-1.4-31.29v-78.1h125.95V246.7H974.59v-43.37c0-0.41,0-0.79,0-1.15
	c0-8.18-6.41-14.84-14.21-14.84c-7.78,0-14.14,6.66-14.14,14.64h-0.21v44.72h-44.1v24.31h44.1v87.61c0,14.21,0.82,24.74,2.19,31.57
	c1.4,6.94,3.98,13.21,8.02,18.57c5.2,7.22,13.35,12.42,24.35,15.54c10.97,3.03,26.14,4.64,45.71,4.64c18.99,0,33.74-1.61,44.13-5.03
	c10.58-3.52,18.34-9.09,23.77-16.92c3.56-5.45,6.17-11.77,7.39-18.83c1.37-7.13,2.17-17.75,2.17-31.5v-11.44H1075.41L1075.41,345.23
	z"/>
<path class="st0" d="M621.24,264.01c-6.98-7.32-16.76-12.54-29.33-15.33c-12.39-2.82-31.34-4.39-57.09-4.39
	c-29.75,0-50.72,2.21-63.09,6.14c-12.59,4.05-21.75,11.82-27.96,23.35h-1.99V246.7h-28.55v180.05h28.55V343.5
	c0-17,0.61-28.75,1.99-35.55c1.21-6.57,4-12.59,8.4-17.77c6.19-7.37,15.35-12.79,27.75-15.99c12.16-3.17,29.34-4.74,51.51-4.74
	c19.76,0,34.53,1.21,44.3,3.58c9.98,2.22,17.19,6.15,22.17,11.74c4,4.81,6.58,10.78,7.97,17.78c1.42,7.01,1.98,18.58,1.98,34.55
	v89.66h28.36V324.91c0-16.8-0.98-29.55-3.17-38.5C630.83,277.39,626.81,270.06,621.24,264.01L621.24,264.01z"/>
<path class="st0" d="M216.39,359.04c-1.62,5.75-4.62,9.97-8.77,12.98c-7.57,5.01-24.2,7.6-49.31,7.6h-0.38
	c-24.17,0-40.38-2.4-48.36-6.99c-4.57-2.61-8.01-6.62-9.75-11.98c-1.79-5.43-2.79-13.37-2.79-23.97c0-19.55,3.4-32.3,9.94-38.09
	c6.62-5.63,23.55-8.64,50.96-8.64c0.76,0,1.54,0,2.38,0c21.95,0,36.95,2.22,44.71,6.22c5.41,2.82,8.96,6.59,11,11.57
	c1.75,4.82,2.78,12.95,2.78,24.35C218.79,344.3,218,353.27,216.39,359.04L216.39,359.04z M268.52,258.24
	c-7.78-7.19-18.38-12.37-31.95-15.59c-13.39-2.99-31.95-4.54-55.5-4.54c-8.44,0-16.22,0.2-23.13,0.61
	c-14.82,0.94-26.35,2.79-34.55,5.58c-11.99,4.16-20.74,11.95-26.57,23.35H93v-24.8H28.35v260.37h68.68V403.01h3.23
	c6.51,10.93,15.55,18.57,26.33,22.55c7.37,2.61,17.98,4.36,31.35,5.34c5.96,0.37,12.76,0.68,20.1,0.68
	c32.59,0,56.16-2.63,70.67-7.78c14.82-5.2,25.02-14.42,30.59-27.82c2.96-7.15,5.2-15.19,6.33-23.95c1.25-8.76,1.85-20.76,1.85-36.3
	c0-23.37-1.41-40.37-4.02-51.35C280.87,273.6,275.89,264.86,268.52,258.24L268.52,258.24z"/>
<path class="st0" d="M313.42,256.24v170.51h68.66V256.69c-8.96,6.33-20.95,10.35-33.94,10.35
	C334.77,267.04,322.58,262.84,313.42,256.24L313.42,256.24z"/>
<path class="st1" d="M494.3,123.87c0,18.37-14.95,33.29-33.36,33.29c-18.4,0-33.36-14.92-33.36-33.29c0-18.46,14.96-33.4,33.36-33.4
	C479.35,90.47,494.3,105.41,494.3,123.87L494.3,123.87z"/>
<path class="st1" d="M390.02,204.19c0,23.3-18.92,42.22-42.27,42.22c-23.35,0-42.26-18.91-42.26-42.22
	c0-23.36,18.92-42.29,42.26-42.29C371.1,161.91,390.02,180.84,390.02,204.19L390.02,204.19z"/>
<path class="st1" d="M602.37,91.95c0,15.62-12.66,28.38-28.32,28.38c-15.64,0-28.33-12.76-28.33-28.38
	c0-15.57,12.68-28.29,28.33-28.29C589.71,63.66,602.37,76.38,602.37,91.95L602.37,91.95z"/>
<path class="st1" d="M710.45,87.34c0,12.84-10.41,23.3-23.28,23.3c-12.88,0-23.3-10.46-23.3-23.3c0-12.81,10.41-23.25,23.3-23.25
	C700.04,64.08,710.45,74.52,710.45,87.34L710.45,87.34z"/>
<path class="st1" d="M820.42,104.37c0,11.07-8.99,20.07-20.11,20.07c-11.16,0-20.15-8.99-20.15-20.07
	c0-11.13,8.99-20.22,20.15-20.22C811.43,84.16,820.42,93.24,820.42,104.37L820.42,104.37z"/>
<path class="st1" d="M929.79,143.35c0,9.04-7.34,16.33-16.38,16.33s-16.36-7.3-16.36-16.33c0-9.09,7.32-16.33,16.36-16.33
	S929.79,134.26,929.79,143.35L929.79,143.35z"/>
</svg>
